<?xml version="1.0" encoding="utf-8"?>
<!-- Generator: Adobe Illustrator 26.4.1, SVG Export Plug-In . SVG Version: 6.00 Build 0)  -->
<svg version="1.1" id="レイヤー_1" xmlns="http://www.w3.org/2000/svg" xmlns:xlink="http://www.w3.org/1999/xlink" x="0px"
	 y="0px" viewBox="0 0 1080 335" style="enable-background:new 0 0 1080 335;" xml:space="preserve">
<style type="text/css">
	.st0{fill:#FFFFFF;}
	.st1{fill:#FE7EB4;}
</style>
<g>
	<g>
		<g>
			<path class="st0" d="M61.1,126.7c-0.1,6.9-0.6,21.7-4.5,37.6c-1.3,5.9-2.4,10.4-8.8,10.4c-1.9,0-9.4-0.8-9.4-8.4
				c0-2.4,0-2.7,2.7-13.6c4.2-17.4,4.2-36,4.2-45.7V54C45.2,40.2,48.1,37,62,37h11.8c13.8,0,16.8,3,16.8,16.9v103.6
				c0,13.6-3.5,16.9-17.4,16.9c-4.3,0-13.2,0-13.2-10.2c0-4.9,2.5-8.2,7-8.2c6.4,0,7.9,0,7.9-5.7v-23.7H61.1z M61.4,74.5h13.6V58.3
				c0-2.1-0.8-3.6-3.6-3.6H65c-2.9,0-3.6,1.6-3.6,3.6V74.5z M75.1,90.6H61.4v19.6h13.6V90.6z M98,80.8c0-13.6,6-16.5,14.1-17.2
				c-1.1-1.5-5.4-9.4-6.5-11.2c-4.8-7.9-5.2-8.7-5.2-11.1c0-4.6,5.5-7.5,9.6-7.5c4.2,0,5.7,2.1,10.2,8.8c4.9,7.3,7.5,12,7.5,15
				c0,3.4-2.2,5.1-3.3,5.8h18.4c3.4-6.7,6.6-13,10-21c2.5-6,4.2-9,9.4-9c4.5,0,11.1,2.2,11.1,8.1c0,3.6-3.3,9.3-11.5,22.6
				c12.4,2,12.4,11.8,12.4,16.5v21.7c0,13.3-5.7,17.4-17.2,17.4h-2.5v32.1c0,3.9,1.5,4.3,4.9,4.3c4.8,0,6.6-1,7.2-9.7
				c0.3-6.1,0.6-9.9,7.2-9.9c7.2,0,7.2,4.6,7.2,8.1c0,3-0.8,13.6-2.7,20.1c-2.7,9.1-9.7,9.1-16.8,9.1c-19,0-23.8,0-23.8-16.9v-37.2
				h-10.3c-0.9,21.3-4.8,31.6-9.4,39.1c-3.8,6-11.8,15.6-17.7,15.6c-5.1,0-9.3-4.5-9.3-9c0-0.3,0-2.1,0.8-3.3c0.6-1.1,6-6.4,9.1-9.4
				c9.4-9.4,9.8-27.6,9.9-33.3c-9.4-1.2-12.7-6.6-12.7-17.1V80.8z M156.5,85.2c0-3.3-1.6-5.1-5.1-5.1h-30.3c-3.4,0-5.1,1.8-5.1,5.1
				v12.7c0,3.5,1.8,5.1,5.1,5.1h30.3c3.3,0,5.1-1.6,5.1-5.1V85.2z"/>
		</g>
		<g>
			<path class="st0" d="M261.3,75.4l49.8-2.5c4.6-0.3,9.3,1.4,9.3,9.3c0,7.2-3.6,8.7-7.9,8.8l-51.1,2.5v16.6l56.7-2.7
				c2.7-0.1,9.6-0.4,9.6,8.8c0,8.4-4.8,9-7.9,9.1l-58.3,3v21.7c0,4.5,2.5,5.1,6.4,5.1c4.4,0,33.4,0,34.5-0.1c3.5-0.5,3.9-3,4.6-11.8
				c0.5-4.5,0.9-9.4,8.7-9.4c10.9,0,10.9,7.2,10.9,10.3c0,2.9-0.9,16-3.3,21c-3.8,8.1-12.4,8.1-18.7,8.1h-41.4
				c-13.5,0-21.4-1.8-21.4-17.4v-26.5l-46.3,2.2c-2.7,0.2-9.3,0.5-9.3-9.3c0-6.3,2.7-8.7,7.9-9l47.7-2.2V94.6l-39,2
				c-2.4,0.1-9.1,0.4-9.1-8.8c0-6.8,2.9-8.9,7.9-9.1l40.2-2.1V61.2c-0.9,0-1.6,0-4.6,0.2c-22.5,1.2-24,1.2-30.7,1.2
				c-6.4,0-12.9,0-12.9-9.6c0-8.5,5.5-8.5,13-8.7c19.8-0.4,49.3-1,80.4-5.8c3.9-0.6,22.2-4,24.6-4c7.5,0,7.9,7.8,7.9,9.9
				c0,7-4.4,8.5-13.5,10.2c-9.3,1.8-16.2,2.4-44.5,5.2V75.4z"/>
		</g>
	</g>
	<g>
		<g>
			<path class="st0" d="M389.7,43.9c0-2.1,0.6-4.5,4.8-4.5c3.1,0,4.8,1.2,4.8,4.5v8.9h7.6c0.9,0,4.8,0,4.8,4.5
				c0,3.4-2.1,4.5-4.8,4.5h-7.6v8.4c0,10.2-2.1,21-16,27.5c-7.2,3.4-14.3,4.5-16.6,4.5c-4.7,0-5-4.5-5-5.3c0-3.3,2-3.7,7.4-4.5
				c8.1-1.2,15.9-5,18.7-11.4c1.8-4,1.8-10.2,1.8-11.1v-8.2h-22v14.3c0,3.1-1.5,4.5-4.7,4.5c-2.4,0-4.8-0.7-4.8-4.5V61.9h-7.4
				c-0.9,0-4.8,0-4.8-4.5c0-3.5,2.2-4.5,4.8-4.5h7.4v-8.8c0-1.9,0.5-4.5,4.7-4.5c3.2,0,4.8,1.3,4.8,4.5v8.8h22V43.9z"/>
		</g>
		<g>
			<path class="st0" d="M472.5,43.9c6.6,0,9.6,2.3,9.6,9.6v34.8c0,7.5-3.3,9.6-9.6,9.6h-37.9c-6.6,0-9.6-2.4-9.6-9.6V53.6
				c0-7.6,3.4-9.6,9.6-9.6H472.5z M437.8,52.8c-2.3,0-3.2,1.2-3.2,3.1V86c0,2.1,1,3.2,3.2,3.2h31.5c1.9,0,3.1-0.9,3.1-3.2V55.9
				c0-2-1-3.1-3.1-3.1H437.8z"/>
		</g>
		<g>
			<path class="st0" d="M501.6,42.8c1.4,0,2.7,0.5,8,3.4c16.1,8.8,16.1,10.1,16.1,12.2s-2.4,5.3-4.8,5.3c-1.9,0-3.5-1.1-7.7-4
				c-3.7-2.6-8.3-5-12.7-7.4c-1.7-0.9-3.6-1.9-3.6-4.4c0-2.7,2.3-4.6,3.9-5C501.1,42.8,501.4,42.8,501.6,42.8z M557.5,53.9
				c0,3.7-6.3,18.7-13.6,27.1c-9.4,10.9-20.1,14.9-28.7,17.2c-4.3,1.2-9.6,2.2-11.7,2.2c-4.5,0-5-4-5-5.5c0-3.6,2-4.3,5.4-4.8
				c20.4-2.4,34.9-10.2,43.6-35.8c1.3-3.7,1.7-5,4.5-5c0.5,0,1.2,0.1,1.8,0.2C555.4,50,557.5,51.1,557.5,53.9z"/>
		</g>
		<g>
			<path class="st0" d="M399.2,119.8c5.3,0,7.2,2.6,7.2,6.3c0,2.7-2.8,22.5-19.3,35.6c-11.4,9-26.9,12-29.2,12c-4.3,0-4.8-3.9-4.8-5
				c0-3.1,1.4-3.5,6.7-4.8c11.9-3,24.2-7.7,31.7-22.3c1.9-3.7,4.1-9.7,4.1-11.6c0-1.4-0.9-1.4-2.7-1.4h-21.2
				c-3.6,4.9-12.7,15-17.6,15c-2.5,0-4.7-2.4-4.7-4.8c0-1.9,0.6-2.4,3.9-4.8c8.4-6.2,14-15.3,15-17.5c2.7-5.3,3.2-6.6,6.2-6.6
				c2.2,0,5.1,1.2,5.1,3.7c0,1.3-0.4,2.5-2.3,6.2H399.2z"/>
		</g>
		<g>
			<path class="st0" d="M432.6,147.5c0,2.2-0.7,4.6-5,4.6c-3.2,0-5.1-1.2-5.1-4.6v-31.3c0-2.2,0.7-4.6,5-4.6c3.2,0,5.1,1.2,5.1,4.6
				V147.5z M469.4,142.4c0,8.3-1.2,22.6-23.1,28.7c-6.5,1.8-12,1.9-13.5,1.9c-1.1,0-5.5,0-5.5-5c0-3.9,2.4-4.1,7.2-4.6
				c11.4-1.1,16.9-3.4,20.7-7.8c3.7-4.3,4.1-8.5,4.1-13v-27.4c0-2.2,0.7-4.7,5-4.7c3.2,0,5.1,1.2,5.1,4.7V142.4z"/>
		</g>
		<g>
			<path class="st0" d="M540,158.1c1.2,0,4.8,0.1,4.8,4.7c0,3.5-1.9,4.8-4.8,4.8h-54.1c-1.2,0-4.8,0-4.8-4.7c0-3.5,1.9-4.8,4.8-4.8
				H540z M534.7,116.4c1.1,0,4.8,0,4.8,4.7c0,3.7-2.2,4.8-4.8,4.8h-43.6c-1.1,0-4.8,0-4.8-4.7c0-4.1,2.6-4.8,4.8-4.8H534.7z"/>
		</g>
		<g>
			<path class="st0" d="M557.5,145.5c-1.7-5.6-3-8.4-4.4-11.4c-0.4-0.8-0.7-1.6-0.7-2.6c0-2.5,2.6-3.9,4.8-3.9
				c3.4,0,4.6,3.3,8.8,14.8c0.6,1.7,0.8,2.4,0.8,3.5c0,3.6-3.7,4.2-5.3,4.2C558.9,150.1,558.3,148,557.5,145.5z M602.4,130.1
				c0,0.3-1.6,14-9.4,25.3c-10.7,15.4-28.1,18-29.2,18c-3.3,0-4.2-3.2-4.2-4.7c0-2.7,1.4-3.1,6.5-4.6c5.8-1.7,18.7-6,24.6-23
				c1-2.8,1.2-3.6,2.7-10.8c0.4-1.9,1-4.5,4.4-4.5c0.4,0,0.9,0.1,1.4,0.2C601.9,126.7,602.4,128.7,602.4,130.1z M573.4,142
				c-1.4-5.6-2.3-8.4-3.6-11.7c-0.3-0.8-0.6-1.5-0.6-2.4c0-2.4,2.4-3.7,4.7-3.7c2.7,0,3.4,1.4,4.2,3.4c1.7,3.5,4.5,13.4,4.5,15.1
				c0,4.1-4.1,4.2-5.6,4.2C574.6,146.8,573.9,144.2,573.4,142z"/>
		</g>
		<g>
			<path class="st0" d="M662.8,119.8c5.3,0,7.2,2.6,7.2,6.3c0,2.7-2.8,22.5-19.3,35.6c-11.4,9-26.9,12-29.2,12c-4.3,0-4.8-3.9-4.8-5
				c0-3.1,1.4-3.5,6.7-4.8c11.9-3,24.2-7.7,31.7-22.3c1.9-3.7,4.1-9.7,4.1-11.6c0-1.4-0.9-1.4-2.7-1.4h-21.2
				c-3.6,4.9-12.7,15-17.6,15c-2.5,0-4.7-2.4-4.7-4.8c0-1.9,0.6-2.4,3.9-4.8c8.4-6.2,14-15.3,15-17.5c2.7-5.3,3.2-6.6,6.2-6.6
				c2.2,0,5.1,1.2,5.1,3.7c0,1.3-0.4,2.5-2.3,6.2H662.8z"/>
		</g>
		<g>
			<path class="st0" d="M735.8,116.4c1.2,0,4.6,0,4.6,4.2c0,3.7-2.7,4.1-3.5,4.2c-1.3,0.1-19.5,0.8-30,1c-1.4,2.2-1.9,3-4.5,7.1
				c4.5-2.9,8.6-3.2,10.2-3.2c5.2,0,8.9,2.4,10.8,7.1c3.3-1.3,12.7-4.2,15.3-4.2c4.4,0,4.4,4.1,4.4,4.8c0,3.2-2.2,4.1-4.4,4.6
				c-10.1,2.4-11.2,2.6-13.8,3.5c0.2,3,0.4,6.3,0.4,8.1c0,4,0,7.3-4.7,7.3c-4.5,0-4.5-3.2-4.5-5.6c0-1.1,0.1-5.6,0.1-6.6
				c-10.3,4.5-13.1,7.6-13.1,11.1c0,4.2,5.9,4.9,13.5,4.9c4,0,9.4-0.4,14.3-1.1c0.9-0.1,2.5-0.4,3.9-0.4c1.1,0,4.3,0,4.3,4.2
				c0,3.3-1.9,4-3.3,4.2c-6.1,1.4-15,1.5-17.4,1.5c-10.5,0-14.8-1.2-18.1-2.4c-4.2-1.7-7.1-5.3-7.1-9.7c0-10.3,12-16.8,21.7-21.1
				c-1.5-2.7-3.9-3-5.3-3c-2.2,0-8.6,0.6-15.2,8.4c-1.1,1.3-5.5,7.1-6.6,8.1c-0.6,0.6-1.7,1.4-3.3,1.4c-2.7,0-4.5-2.6-4.5-4.7
				c0-1.8,0.9-2.8,5.3-7.6c6.2-6.8,11.4-15.7,12.2-16.8c-1.7,0-9,0.1-10.4,0.1c-1.4,0-5-0.1-5-4.4c0-4.2,3.5-4.2,4.8-4.2
				c5-0.1,9.9-0.1,14.9-0.2c0.4-0.8,1.7-4.5,2-5.2c0.5-1.3,1.2-3,4.7-3c2.6,0,4.8,1.2,4.8,3.7c0,1.2-0.4,2.1-1.4,4.2
				c13.5-0.4,14.9-0.8,23.8-0.8H735.8z"/>
		</g>
	</g>
	<g>
		<g>
			<path class="st0" d="M116.8,291.1c-4.8,1.3-17.5,2.8-32.1,2.8c-8.2,0-14.4-0.6-18.8-1.1c-7-0.9-25.7-4.5-25.7-20.9
				c0-10.1,6.7-16.9,11.7-20.8c2.3-1.7,3.7-2.4,5.4-2.4c4.7,0,6.9,3.8,6.9,6.1c0,2.2-1.7,3.8-5.5,7.6c-4.4,4.2-4.8,6.2-4.8,8.4
				c0,9.3,16.3,10.4,28.2,10.4c9.4,0,19.8-0.9,27-2.3c5.9-1.1,6.1-1.1,7.6-1.1c1.2,0,6.3,0,6.3,6C123,288.4,121.3,289.9,116.8,291.1
				z M54.5,226.2c-3.2,0-8.4-0.1-8.4-6.4c0-6.5,4.5-6.5,8.6-6.5c1.6,0,14,0.3,16.6,0.3c3.8,0,25-0.5,29.9-0.7c1.2,0,5.1-0.2,6-0.2
				c3.7,0,8.5,0.3,8.5,6.2c0,4.1-1.3,4.8-8,8.9c-2.5,1.5-13.8,8.6-16.1,10.1c-2.7,1.7-4.3,2.4-6.2,2.4c-3.7,0-6.5-2.9-6.5-6.1
				c0-2.3,1.4-3.7,5.4-6.2c0.9-0.6,5.3-2.7,6.2-3.3C80.3,225.5,65,226.2,54.5,226.2z"/>
		</g>
		<g>
			<path class="st0" d="M159.7,210.6c0.9-2.5,3.2-3.5,5.7-3.5c6.2,0,7.1,3.3,7.1,5.8c0,1.1-0.2,2.3-1,7.3c9.4-0.2,18.3-0.5,28.4-1
				c0.8,0,1.8-0.1,2.3-0.1c4.2,0,6.6,1.8,6.6,6.2c0,3.6-1.7,5.5-4.9,6c-2.8,0.4-25.6,1.1-35,1.4c-3.4,16-8,31.8-13.4,47.2
				c-4.5,13-5.5,15.8-10.2,15.8c-2.2,0-7.4-1.2-7.4-6c0-1.1,0.1-2.2,2.3-7c3.7-8,8.2-21.4,10.8-30.8c1.6-5.8,3.3-12.9,4.6-19
				c-2.7,0.1-11.6,0.2-13.7-0.4c-1.6-0.4-3.4-2.1-3.4-5.7c0-3.4,1.3-5.7,4.9-6.2c0.7-0.1,12.9-0.1,14.4-0.1
				C158.2,218.5,159.3,211.9,159.7,210.6z M221.2,293.9c-1.5,0.4-6.7,1.3-17.1,1.3c-23.7,0-33.9-4-33.9-16.4
				c0-2.9,1.1-11.6,8.8-11.6c2.4,0,6.1,1.1,6.1,4.4c0,0.9-0.4,2.1-0.6,2.6c-0.5,1.2-0.9,2.2-0.9,3.2c0,2.7,2,4,5.5,4.7
				c2.6,0.6,6.4,0.9,10.5,0.9c6.5,0,11-0.5,17.2-1.1c1.2-0.1,1.8-0.2,2.7-0.2c4,0,6,2,6,5.9C225.5,291,223.9,293.2,221.2,293.9z
				 M220.5,254c-1.3,0.9-2.6,1-4.2,1c-0.7,0-4.6-0.3-6.9-0.4c-1.4-0.1-2.6-0.1-4.8-0.1c-6.6,0-11.7,0.4-13.2,0.5
				c-7.8,0.7-9,0.8-9.9,0.8c-5.5,0-5.5-5.2-5.5-6.1c0-3.1,1.5-5.2,5.8-6.1c6.5-1.4,17.6-1.8,24.5-1.8c16.3,0,16.3,2.6,16.3,7.5
				C222.6,250.6,222,252.9,220.5,254z M207.1,210.5c-0.2-0.7-0.3-1.1-0.3-1.7c0-2.4,2.4-3,3.6-3c1.9,0,2.3,1,4.3,5
				c2,4.1,3,7.1,3,8.5c0,2.1-1.7,3.2-3.7,3.2c-1.5,0-2.4-1-2.9-2.4c-0.9-2.4-1.2-3.3-1.9-4.8C208.6,213.9,207.6,211.8,207.1,210.5z
				 M218.8,208.4c-0.3-0.7-0.3-1.4-0.3-1.7c0-2.5,2.8-2.9,3.6-2.9c1.4,0,2.6,0.6,4.6,5.1c0.8,1.9,2.6,6.4,2.6,8.2
				c0,2.8-2.8,3.2-3.6,3.2c-2.2,0-2.9-2.2-3.2-3.2c-0.4-1.4-0.6-1.8-1.5-3.8C220.7,212.5,219.1,209.1,218.8,208.4z"/>
		</g>
		<g>
			<path class="st0" d="M258.6,236l-13.2,0.7c-1.4,0.1-7.3,0.4-7.3-6.2c0-6,5-6.2,6.8-6.3l14.1-0.6c0.2-4.1,0.5-11.2,0.8-12.4
				c0.7-3,3.5-4,6.3-4c5.8,0,6.6,3.3,6.6,6.4c0,2.5-0.9,15-1,17.8c12.2-9.7,21-9.9,25.3-9.9c16,0,29.5,9.8,29.5,31.3
				c0,27-14.8,34.4-24.3,37.4c-5.1,1.6-12,2.7-17.2,2.7c-2.5,0-7.9,0-7.9-6.3c0-5.7,4.2-6,11.9-6.5c8.5-0.6,24.2-4.7,24.2-25.3
				c0-5.9-1.5-21.2-18-21.2c-7.7,0-15,3.2-24.1,11.6c-0.2,7.7-0.3,15.3-0.3,22.9c0,3.2,0.2,17.3,0.2,20.2c0,3.6,0,8.5-6.4,8.5
				c-6.7,0-6.7-4-6.7-10.3c0-6.8,0.1-18.8,0.2-25c-3.9,5.9-6.7,10.2-8.7,13c-2.1,2.8-3.4,3.8-5.6,3.8c-3.3,0-7-2.7-7-6.5
				c0-2.5,0.8-3.4,4.6-7.7c6.4-7.2,12.3-14.8,17.1-23.1L258.6,236z"/>
		</g>
		<g>
			<path class="st0" d="M370,215.5c5.4-4.4,11.8-6.3,17.9-6.3c10,0,16.9,5.4,20.2,10.4c5.4,8.3,7.3,19.4,7.3,31.8
				c0,23.1-6.9,44.8-50,44.8c-5.3,0-10.7,0-10.7-6.6c0-6.1,5.7-6.1,7.4-6.1c9.1,0,10.1,0,13.6-0.5c18.7-2.6,25.8-11.3,25.8-31.5
				c0-10.9-1.2-30.1-15.1-30.1c-9.8,0-16.9,8.3-19.8,12.2c-6.3,8.4-8.5,16.6-8.5,24.3c0,1.4,0.4,7.8,0.4,9.1c0,2,0,6.5-6.4,6.5
				c-2.7,0-5.5-0.5-6.3-4.3c-0.7-3.3-1.2-10.9-1.2-14.9c0-15.2,1.9-36.3,3.5-42.4c0.5-1.9,1.5-5,6.7-5c5.4,0,7,2.5,7,5.6
				c0,1.4-0.5,3.8-0.8,5.3c-1.3,5.9-1.6,8.5-2.1,12.1C361,225.7,363.5,220.7,370,215.5z"/>
		</g>
		<g>
			<path class="st0" d="M494,266.7c10.9,10.3,22.4,15,26.7,16.7c2.9,1.2,4.3,2.2,4.3,5c0,3.3-2.2,7.5-6.3,7.5
				c-3.9,0-21.3-9.5-33.4-23.3v21.1c0,4.9-2.2,6.1-6.7,6.1c-5.2,0-5.7-3.5-5.7-6.1v-20.8c-2.4,2.6-7.6,8.1-16.4,14.3
				c-4.7,3.3-14.3,8.9-17.3,8.9c-4.1,0-6.5-4.3-6.5-7.7c0-2.9,1.5-3.9,4.2-5c9.4-3.6,18.5-8,27.4-16.7h-26.9c-2.7,0-5.4-0.7-5.4-5.6
				c0-5.3,3.5-5.5,5.4-5.5h35.5v-4c0-4.3,3.1-4.9,6.7-4.9c3.3,0,5.7,1.2,5.7,4.9v4h35.5c1.7,0,5.4,0.1,5.4,5.6
				c0,5.5-3.9,5.5-5.4,5.5H494z M502.3,210.6c2.9,0,9.5,0,9.5,7.1c0,4.1-2.9,7.4-5.8,10c-4.6,4.3-8.7,6.8-11.3,8.3
				c9.4,2.3,13.3,2.7,25.1,3.6c3.7,0.3,5.9,1.1,5.9,5.4c0,2.3-0.5,6.7-5.9,6.7c-3.7,0-22.3-1.9-39.7-8.9c-17,6.1-38,8.9-41.8,8.9
				c-5.7,0-5.7-5.5-5.7-6.5c0-5.1,3.5-5.3,6.5-5.6c2.4-0.2,15.6-1.4,26.8-4.2c-3-2-6.1-4.2-10.5-8.2c-4.6,2.5-12.8,6.4-16.5,6.4
				c-4.4,0-5.3-5-5.3-6.7c0-3.5,2.3-4.4,4.4-5.1c4.3-1.5,15.8-6.3,22.8-11.9c7.1-5.8,7.3-6,10.5-6c4.8,0,7.4,1.8,7.4,4.2
				c0,1.2-0.7,2-1,2.5H502.3z M466.5,220.5c-0.9,0.7-1.2,0.8-1.8,1.2c5.3,4.3,9,6.6,15,9.4c11-4.5,14.3-8.6,14.3-9.4
				c0-1.2-1.1-1.2-2.1-1.2H466.5z"/>
		</g>
		<g>
			<path class="st0" d="M560.8,293.4c0,1.4,0,6.2-5.9,6.2c-5.4,0-6.4-2.9-6.4-6.2v-41.1c-1.1,1.4-2.4,3-4.9,3
				c-3.7,0-6.6-3.6-6.6-7.6c0-2.5,1-3.9,2.1-5.4c9.9-13.3,12.2-20.9,16.2-33.5c0.7-2.3,2.1-3.8,5.2-3.8c2.3,0,6.8,0.9,6.8,5
				c0,3.1-3.1,12.5-6.5,20.7V293.4z M594.3,222.2v-11.4c0-2.1,0.2-6.2,6-6.2c4.9,0,6.9,1.6,6.9,6.2v11.4h16.3c1.6,0,6.1,0.1,6.1,5.7
				c0,4.3-1.6,6.3-6.1,6.3h-16.3v20.7h18.6c2.3,0,6.1,0.4,6.1,5.6c0,4.6-1.5,6.6-6.2,6.6h-18.5v26.3c0,2.2-0.2,6.2-5.9,6.2
				c-5.1,0-7-1.7-7-6.2v-26.3h-25.5c-1.6,0-6.2,0-6.2-5.7c0-4.6,1.7-6.5,6.2-6.5h25.5v-20.7h-13.9c-5.4,14-7.1,14.7-10.3,14.7
				c-3.3,0-6.8-2.8-6.8-6c0-1.5,0.1-1.7,3.8-8.6c3.8-7.1,5.3-12.9,7.3-21.1c0.7-2.8,1.4-5.2,5.4-5.2c2.5,0,6.5,1.1,6.5,4.8
				c0,2.4-1.6,8.3-1.9,9.4H594.3z"/>
		</g>
		<g>
			<path class="st0" d="M657.3,228.1c-1.2,0.1-6.5,0.6-7.6,0.6c-5.8,0-6.6-4.1-6.6-6.9c0-4.3,1.7-6.4,6.5-6.9
				c5.2-0.5,61.1-2.4,71.8-2.4c5.7,0,10.3,0,10.3,6.4c0,6.7-4.6,6.7-10.1,6.7c-8,0.1-14.1,1.7-24.2,7.9c-6.9,4.2-20.1,15-20.1,29.7
				c0,13.7,11.6,17.5,30.1,17.5c8,0,8.9-0.1,10.4,0.3c3.3,0.8,4.3,3.2,4.3,5.9c0,7.7-6,7.7-12.1,7.7c-14.2,0-25.3-2.9-32.1-6
				c-10-4.6-14.3-14.6-14.3-24.2c0-7.3,1.8-16.8,12.8-27.9c5.7-5.7,9.7-8.1,14-10.6C679.4,226.6,668.3,227.3,657.3,228.1z
				 M706,240.2c-0.3-0.6-0.5-1.3-0.5-1.9c0-1.9,2.2-3,3.6-3c1.6,0,2.4,0.8,4.6,4.5c1.2,2,3.7,7,3.7,8.6c0,2.5-2.6,3.2-3.8,3.2
				s-2.1-1-2.7-2.1c-0.7-1.3-1.6-3.3-2.3-4.6C708.2,244.2,706.4,240.9,706,240.2z M716.7,235.5c-0.4-0.8-0.5-1.4-0.5-2
				c0-1.8,2.1-2.9,3.5-2.9c1.8,0,2.5,1.2,4.4,4.3c0.7,1.1,3.9,6.3,3.9,8.7c0,2.1-2.1,3.1-3.7,3.1c-1.3,0-2.3-1.1-2.6-1.6
				c-0.4-0.8-2.1-4.3-2.4-4.9C718.9,239.4,717,236.2,716.7,235.5z"/>
		</g>
	</g>
	<g>
		<g>
			<path class="st0" d="M761.9,172.8c0-2.4,0-9.3,9-9.3c7.9,0,10.2,3.4,10.2,9.3v30.6h28.2c2.7,0,8.2,0,8.2,9.2
				c0,8.8-4.9,9.3-8.2,9.3h-28.2v56.7c7.3-1.2,7.9-1.3,22.6-4.3c3.7-0.8,4.6-0.9,6.4-0.9c5.2,0,7.5,3.9,7.5,8.8
				c0,6.9-3.5,7.6-11.5,9.6c-8.7,2-45.1,9.6-50.5,9.6c-8.2,0-8.2-9.3-8.2-10c0-2.1,0.5-6.7,5-8.1c1.5-0.4,2.5-0.6,9.6-1.6V172.8z
				 M840.7,278.7c0,5.2,1.8,5.2,16.8,5.2c11.8,0,12.6,0,13.2-11.1c0.2-1.9,0.3-10.9,0.6-12.7c0.8-5.5,5.5-6,8.1-6
				c9.7,0,9.7,6.3,9.7,10.6c0,7.5-0.9,25.8-4.9,31.9c-3.9,5.7-8.2,6-31,6c-20.2,0-21.3-0.5-24-1.7c-7.8-3.3-7.8-12-7.8-15.9V172.8
				c0-2.6,0-9.3,9-9.3c7.8,0,10.3,3,10.3,9.3v37c11.4-6.6,19.5-11.8,24.1-15.7c7.2-5.9,9-7.3,12.8-7.3c5.1,0,9.7,4.8,9.7,10.6
				c0,4.5-1.5,6.9-13.3,14.7c-8.7,5.5-16.8,10.8-33.3,19.2V278.7z"/>
		</g>
		<g>
			<path class="st0" d="M965.7,220.7c0.1-0.5,0.6-1,1.2-1.7c6.2-6.6,7.7-8.1,11.1-13.8c4-6.6,4.8-7.7,8.7-7.7c4.9,0,8.8,3.3,8.8,7.3
				c0,4.2-4.8,11.4-8.1,15.9c-3.9,5.4-9,12.8-13.6,12.8c-1.4,0-5.5-0.6-8.1-5.1v12.9c0,13.8-3,16.8-16.8,16.8h-5.7v8h17.8
				c5.7,0,9,2.2,9,8.2c0,7.2-5.1,8.1-9,8.1h-17.8v14.7c0,3.4-0.6,7.9-8.2,7.9c-7.8,0-8-5.2-8-7.9v-14.7h-18.3c-3.3,0-9-0.6-9-8.2
				c0-8.1,6.9-8.1,9-8.1H927v-8h-6.1c-14.1,0-16.9-3.3-16.9-16.8v-25.9c0-13.9,3.1-16.8,16.9-16.8h6.1v-7.8h-16.8
				c-2.1,0-9.1,0-9.1-8c0-7.9,7.2-7.9,9.1-7.9H927v-5.4c0-6.7,5.4-7,8.5-7c4.3,0,7.6,1.9,7.6,7v5.4h15.9c4,0,8.2,0.9,9.2,6.8
				c1.8-3,4.5-3.6,8.1-3.6h17.1V170c0-6.4,4.5-7.5,9.5-7.5c5.8,0,8.4,2.8,8.4,7.5v8.1h20.8c4.2,0,9.1,1,9.1,8.4
				c0,8.4-6.9,8.4-9.1,8.4h-55.8c-6,0-8.7-2.2-9.2-7.5c-1.8,3-4.6,3.5-7.9,3.5h-16v7.8h5.7c13.8,0,16.8,3,16.8,16.8V220.7z
				 M927.5,222v-10.8h-5.4c-2.7,0-3.6,1.4-3.6,3.6v7.2H927.5z M927.5,233.3h-9v7.8c0,2.2,0.9,3.6,3.6,3.6h5.4V233.3z M942.9,222h9.2
				v-7.2c0-2.6-1.2-3.6-3.6-3.6h-5.5V222z M942.9,233.3v11.4h5.5c2.4,0,3.6-1,3.6-3.6v-7.8H942.9z M1011.3,237
				c1.5-4.6,3-6.7,7.6-6.7c5.2,0,8.8,3.1,8.8,6.6c0,3.3-4.2,15.9-15.1,32.7c7.8,7.7,12.3,10.3,23.1,16.8c3.9,2.4,5.5,3.8,5.5,7.6
				c0,5.7-4.3,9.9-8.8,9.9c-2.4,0-4.7-0.1-15.9-8.1c-8.2-5.8-12.9-10.8-14.7-12.9c-12,12.4-26.8,21.4-31.8,21.4
				c-5.2,0-9.3-4.8-9.3-9.9c0-3.5,2-5.1,6-7.2c13.5-7.2,17.4-9.9,24.7-17.7c-10.2-16.5-13-30.4-13-32.5c0-5.1,5.4-6.9,8.7-6.9
				c5.7,0,6.6,3.5,8.1,8.8c2.7,9.3,5.7,14.8,7.2,17.1C1005.3,251.4,1007.7,247.5,1011.3,237z M1027.4,204.6
				c3.3,4.8,6.7,8.4,11.4,13.3c1.6,1.7,3.3,3.5,3.3,6.6c0,4.7-3.8,8.8-8.7,8.8c-2.4,0-5.1,0-15-13c-8.5-11.2-8.8-13.3-8.8-15.6
				c0-3.8,3.3-7.3,9.1-7.3C1022.3,197.4,1023.5,199.1,1027.4,204.6z"/>
		</g>
	</g>
</g>
<g>
	<g>
		<g>
			<path class="st1" d="M47.8,184.7c-9.7,0-19.4-6.3-19.4-18.4c0-3.8,0.3-5.1,3-16c3.9-16.2,3.9-33.9,3.9-43.4V54c0-7,0.5-15,6-20.6
				C46.6,27.8,54.4,27,62,27h11.8c7,0,14.2,0.6,19.5,5.1c3.7-5.2,10.3-8.4,16.7-8.4c9.7,0,13.8,6.2,18.5,13.3
				c4.3,6.5,7.2,11.3,8.5,15.8c2.2-4.4,4.4-9,6.7-14.4c2.4-5.6,6.4-15,18.6-15c10.2,0,21.1,6.3,21.1,18.1c0,4.9-2.1,9.8-7.2,18.3
				c4.7,4,8.1,10.4,8.1,20.9v21.7c0,13.6-5.3,20.7-12.3,24.3c0.6,0,1.2-0.1,1.8-0.1c5.2,0,17.2,1.8,17.2,18.1c0,3.4-0.7,15.1-3.1,23
				c-4.8,16.3-18.8,16.3-26.4,16.3c-11,0-18.2,0-24.2-3.5c-7-4.2-9.1-11.2-9.6-18.7c-0.5,0.8-0.9,1.6-1.4,2.4
				c-2.6,4.2-6.2,8.6-9.6,11.9c-5.8,5.6-11.2,8.4-16.6,8.4c-3.8,0-7.4-1.2-10.4-3.1c-4.2,2.1-9.6,3.1-16.6,3.1
				c-2.7,0-7.7,0-12.4-2.2c-0.7-0.3-1.4-0.7-2.1-1.1C56.2,183.3,52.6,184.7,47.8,184.7z M126,93h20.5v-2.9H126V93z"/>
		</g>
		<g>
			<path class="st1" d="M304.5,183.4h-41.4c-9.4,0-31.4,0-31.4-27.4v-16.1l-35.9,1.7c-2.1,0.1-8.9,0.5-14.2-4.5
				c-3.7-3.5-5.6-8.5-5.6-14.8c0-10.4,5.6-17.3,15-18.7c-0.7-0.5-1.4-1-2-1.6c-2.5-2.4-5.5-6.8-5.5-14.3c0-8.5,3.4-14.5,9.7-17.3
				c-0.1,0-0.1-0.1-0.2-0.1c-3.6-1.8-9.6-6.4-9.6-17.4c0-10.4,5.8-14.8,9.3-16.5c4.2-2.1,8.8-2.1,13.3-2.2l1.3,0
				c19.2-0.4,48.2-1.1,78.1-5.7c1.1-0.2,3.9-0.7,6.9-1.2c13.6-2.4,17.2-3,19.2-3c10.6,0,17.9,8.2,17.9,19.9
				c0,12.3-8.2,16.7-15.4,18.7c5.3,0.4,8.8,2.6,10.8,4.6c2.6,2.4,5.6,6.9,5.6,14.7c0,7.1-2.5,12.5-7.1,15.6c2.8,0.5,6,1.7,8.8,4.3
				c2.5,2.4,5.5,6.8,5.5,14.2c0,6.1-1.9,11.1-5.3,14.4c2.8,3.4,4.3,8,4.3,13.5c0,0.2-0.4,17.2-4.3,25.3
				C325.9,183.4,311.5,183.4,304.5,183.4z M271.3,138v7.3c12.6,0,20.7,0,25.4-0.1c0.1-1.1,0.2-2.1,0.3-2.8c0-0.1,0-0.1,0-0.2
				c0.2-1.7,0.4-3.6,0.9-5.7L271.3,138z M317.7,144.1C317.7,144.1,317.7,144.1,317.7,144.1S317.7,144.1,317.7,144.1z M314.9,144
				L314.9,144C314.9,144,314.9,144,314.9,144z M193.9,123.4L193.9,123.4L193.9,123.4z"/>
		</g>
	</g>
	<g>
		<g>
			<path class="st1" d="M366.7,112.3c-9.7,0-15-7.9-15-15.3c0-3.8,1.1-6.6,2.8-8.6c-4-2.5-6.3-6.8-6.3-12.2v-4.4
				c-7.3-1.1-12.2-6.6-12.2-14.3c0-7.6,5-13.3,12.2-14.3c0.5-8,6.4-13.4,14.7-13.4c8.4,0,14.2,5.3,14.7,13.2h2.1
				c0.5-8,6.4-13.5,14.7-13.5c8.6,0,14.4,5.4,14.8,13.6c7.4,1,12.3,6.6,12.3,14.3c0,7.7-5,13.4-12.3,14.4
				c-0.2,11.2-3,26.4-21.7,35.2C379.1,110.8,370.5,112.3,366.7,112.3z M377.7,71.9v4.3c0,0.9-0.1,1.8-0.2,2.6c0.6-0.6,1-1.1,1.3-1.6
				c0.4-0.9,0.8-2.9,0.9-5.2H377.7z M399.3,43.9h-9.6H399.3z"/>
		</g>
		<g>
			<path class="st1" d="M472.5,108h-37.9c-12.5,0-19.6-7.2-19.6-19.6V53.6c0-12.5,7.2-19.6,19.6-19.6h37.9
				c12.5,0,19.6,7.2,19.6,19.6v34.8C492.2,100.8,485,108,472.5,108z M444.6,79.1h17.7V62.8h-17.7V79.1z M469.3,62.8L469.3,62.8
				L469.3,62.8z"/>
		</g>
		<g>
			<path class="st1" d="M503.4,110.4c-8.7,0-15-6.5-15-15.5c0-11.2,8.9-14,14.1-14.7c0,0,0.1,0,0.1,0c8.1-0.9,14.9-2.7,20.6-6.7
				c-0.8,0.2-1.6,0.2-2.5,0.2c-5,0-8.4-2.3-13.4-5.8c-3.2-2.2-7.2-4.4-11.7-6.8c-5.9-3.1-8.9-7.5-8.9-13.2c0-7.6,5.7-13.2,11.3-14.7
				c0.3-0.1,0.7-0.2,1-0.2c1.2-0.2,2.2-0.2,2.6-0.2c4.1,0,7.2,1.6,12.7,4.6c14.2,7.8,20.7,11.7,21.3,19.9c0.8-1.9,1.6-3.9,2.4-6.2
				c0,0,0-0.1,0-0.1c1.3-3.8,4-11.7,14-11.7c1.3,0,2.6,0.2,4,0.5c0.2,0,0.3,0.1,0.5,0.1c6.8,1.8,11.1,7.3,11.1,14
				c0,7.3-8.2,24.7-16,33.7c-11.1,13-23.9,17.7-33.7,20.3C516.8,108.1,508.3,110.4,503.4,110.4z M501.6,52.8
				C501.6,52.8,501.6,52.8,501.6,52.8l0-4.3L501.6,52.8z M501.6,46.3L501.6,46.3l0-3.5L501.6,46.3z"/>
		</g>
		<g>
			<path class="st1" d="M357.9,183.6c-9.6,0-14.8-7.7-14.8-15c0-11.1,9-13.2,14.3-14.5c10.9-2.7,18.9-6.3,24.3-15.6h-5.3
				c-5,6-14,15-22.4,15c-8,0-14.7-6.8-14.7-14.8c0-7,4-10,7.9-12.9c6.7-5,11.4-12.5,12-13.8c0,0,0-0.1,0.1-0.1l0.3-0.5
				c2.7-5.4,5.8-11.6,14.9-11.6c7,0,12.8,4.1,14.5,9.9h10.1c10.3,0,17.2,6.6,17.2,16.3c0,5.3-3.9,28.3-23.1,43.4
				C379.7,180.2,361.8,183.6,357.9,183.6z"/>
		</g>
		<g>
			<path class="st1" d="M432.8,183c-9.2,0-15.5-6.2-15.5-15c0-3.4,0.9-6,2.2-7.9c-4.3-2.4-6.9-6.9-6.9-12.6v-31.3
				c0-8.7,6-14.6,15-14.6c9,0,15.1,5.9,15.1,14.6v31.3c0,1.6-0.2,3.2-0.6,4.6c3.8-1,4.9-2.2,5.6-3c1.4-1.6,1.7-2.9,1.7-6.4v-27.4
				c0-8.8,6-14.7,15-14.7c9,0,15.1,5.9,15.1,14.7v27.1c0,19.8-10.2,32.7-30.5,38.3C441.5,182.8,435.1,183,432.8,183z M422.6,147.5
				C422.6,147.5,422.6,147.5,422.6,147.5h10H422.6z"/>
		</g>
		<g>
			<path class="st1" d="M540,177.5h-54.1c-8.7,0-14.8-6-14.8-14.7c0-8.7,6.1-14.8,14.8-14.8H540c8.7,0,14.8,6,14.8,14.7
				C554.8,171.4,548.7,177.5,540,177.5z M540.1,168.1L540.1,168.1L540.1,168.1z M534.7,135.8h-43.6c-8.7,0-14.8-6-14.8-14.7
				c0-8.7,6.1-14.8,14.8-14.8h43.6c8.7,0,14.8,6,14.8,14.7C549.4,129.7,543.4,135.8,534.7,135.8z M534.8,126.4L534.8,126.4
				L534.8,126.4z"/>
		</g>
		<g>
			<path class="st1" d="M563.7,183.5c-7,0-14.2-5.5-14.2-14.7c0-5.3,2.2-8.5,5.1-10.5c-4.4-2.7-6-7.7-6.6-9.8c0,0,0-0.1,0-0.1
				c-1.5-4.9-2.5-7.2-3.9-10.2c-0.6-1.3-1.7-3.6-1.7-6.8c0-7.8,6.5-13.9,14.8-13.9c2.2,0,4.1,0.4,5.7,1.1c2.7-2.8,6.6-4.6,11-4.6
				c5.5,0,9.6,2.5,12.4,7.4c2.1-2.9,5.6-5.5,11.2-5.5c1.3,0,2.5,0.2,3.8,0.5c6.7,1.5,11,6.8,11,13.7c0,2.3-2.1,17.8-11.2,31
				C588.4,179.5,568,183.5,563.7,183.5z"/>
		</g>
		<g>
			<path class="st1" d="M621.6,183.6c-9.6,0-14.8-7.7-14.8-15c0-11.1,9-13.2,14.3-14.5c10.9-2.7,18.9-6.3,24.3-15.6h-5.3
				c-5,6-14,15-22.4,15c-8,0-14.7-6.8-14.7-14.8c0-7,4-10,7.9-12.9c6.7-5,11.4-12.5,12-13.8c0,0,0-0.1,0.1-0.1l0.3-0.5
				c2.7-5.4,5.8-11.6,14.9-11.6c7,0,12.8,4.1,14.5,9.9h10.1c10.3,0,17.2,6.6,17.2,16.3c0,5.3-3.9,28.3-23.1,43.4
				C643.3,180.2,625.4,183.6,621.6,183.6z"/>
		</g>
		<g>
			<path class="st1" d="M718.2,183.6c-11.4,0-16.9-1.3-21.7-3.1c0,0-0.1,0-0.1,0c-6.9-2.8-11.7-8.5-12.9-15.2
				c-7.4-0.5-13.5-7-13.5-14.6c0-5.7,2.8-8.8,7.9-14.4c0.5-0.5,1-1.1,1.5-1.7c-4.2-2.1-7.4-6.3-7.4-12.6c0-8.4,6.1-14.2,14.7-14.2
				c1.6,0,3.3,0,4.9-0.1c1.1,0,2.1,0,3.2,0c3.1-6.8,9-8.3,13.6-8.3c6,0,11,3,13.3,7.6c0.5,0,1,0,1.4-0.1c4.2-0.2,7-0.3,12.5-0.3h0.4
				c7,0,14.6,4.5,14.6,14.2c0,2.4-0.5,4.5-1.4,6.4c2.5,2.6,4,6.3,4,10.6c0,10.7-9.3,13.7-12.1,14.3l-3,0.7c-1,0.2-1.9,0.5-2.7,0.6
				c0,0.1,0,0.2,0,0.2c8.1,0.3,13.7,6.1,13.7,14.2c0,7.2-4.3,12.5-11.2,14C730.3,183.5,720.1,183.6,718.2,183.6z M680.7,146.8
				C680.7,146.8,680.7,146.8,680.7,146.8C680.7,146.8,680.7,146.8,680.7,146.8z"/>
		</g>
	</g>
	<g>
		<g>
			<path class="st1" d="M84.7,303.9c-8.6,0-15.2-0.6-19.9-1.2c0,0-0.1,0-0.1,0c-21.6-2.8-34.4-14.3-34.4-30.8
				c0-7.6,2.7-18.7,15.6-28.7c0.1-0.1,0.1-0.1,0.2-0.2c3.1-2.3,6.6-4.4,11.3-4.4c10.4,0,16.9,8.4,16.9,16.1c0,6.3-3.7,9.9-8,14.2
				l-0.5,0.5c-0.1,0.1-0.1,0.1-0.2,0.2c0,0,0,0-0.1,0.1c2.6,0.7,7.4,1.5,16.6,1.5c8.6,0,18.5-0.8,25.1-2.1c6.1-1.1,7-1.3,9.5-1.3
				c9.6,0,16.3,6.6,16.3,16c0,13.3-10.2,16.1-13.6,17C113.8,302.3,100.5,303.9,84.7,303.9z M85.4,250.3c-8.5,0-15.5-6.3-16.4-14.4
				c-5.1,0.2-10.1,0.3-14.5,0.3c-17.1,0-18.4-12.6-18.4-16.4c0-9.2,5.2-13.1,8.3-14.6c3.7-1.9,7.5-1.9,10.3-1.9c0.8,0,3,0,6.8,0.1
				c3.8,0.1,8.4,0.2,9.8,0.2c3.6,0,24.6-0.5,29.5-0.7c0.1,0,0.3,0,0.4,0c0.4,0,2-0.1,3-0.1c1.3-0.1,2.5-0.1,3-0.1
				c17.2,0,18.5,12.4,18.5,16.2c0,9.6-5.4,12.9-12.3,17.2l-0.4,0.3c-2.4,1.5-13.7,8.5-15.9,9.9c0,0-0.1,0.1-0.1,0.1
				C93.9,248.3,90.2,250.3,85.4,250.3z"/>
		</g>
		<g>
			<path class="st1" d="M145.3,305.7c-8.6,0-17.4-6-17.4-16c0-3.2,0.8-5.8,3.2-11.2c3.5-7.6,7.8-20.5,10.3-29.3
				c0.5-2,1.1-4.2,1.7-6.5c-1.4-0.1-2.6-0.3-3.6-0.5v0c-5.5-1.4-11-6.7-11-15.4c0-8.8,5.2-14.9,13.5-16.1c0.6-0.1,1.1-0.2,7.4-0.2
				c0.3-1.4,0.5-2.2,0.7-2.9c0-0.2,0.1-0.3,0.1-0.4c2.2-6.2,8-10.1,15.1-10.1c7.7,0,15.4,4,16.9,12.8c4.8-0.2,9.6-0.3,14.5-0.6
				c0-0.2,0-0.4,0-0.5c0-7.3,6-13,13.6-13c1.3,0,2.6,0.2,3.6,0.5c2.4-1.6,5.2-2.5,8.1-2.5c8.8,0,12.3,7.7,13.7,11
				c0,0.1,0.1,0.1,0.1,0.2c3.4,8,3.4,10.8,3.4,12.1c0,8.3-6.9,13.2-13.6,13.2c-0.7,0-1.9-0.1-3.3-0.4c-1.4,1-3.1,1.8-4.9,2.2
				c0,0.1-0.1,0.2-0.1,0.3c3.6,0.5,6.3,1.4,8.5,2.8c6.8,4.2,6.8,11.1,6.8,14.1c0,3.8-1.6,9.4-6.2,12.8c-0.1,0.1-0.1,0.1-0.2,0.2
				c-4,2.8-8,2.8-9.9,2.8c-0.6,0-1.3,0-3.4-0.2c-1.3-0.1-2.8-0.2-3.9-0.2c-0.1,0-0.2,0-0.3,0c-1-0.1-1.9-0.1-4.1-0.1
				c-5,0-9,0.2-11.2,0.4c1.1,2,1.7,4.3,1.7,6.7c0,0.4,0,0.8-0.1,1.2c1.2,0.1,2.7,0.2,4.6,0.2c5.4,0,9.3-0.4,14.6-0.9l1.6-0.2
				c0,0,0.1,0,0.1,0c0.3,0,0.6-0.1,0.8-0.1c0.7-0.1,1.6-0.2,2.7-0.2c9.6,0,16,6.4,16,15.9c0,7.8-4.6,14.1-11.8,16
				c-1.9,0.5-7.5,1.6-19.6,1.6c-14.1,0-23.3-1.4-30-4.5c-5.4-2.5-9.2-6.1-11.5-10.8c-1.2,3.4-2.3,5.9-3.5,7.9
				C155.9,303.1,151.3,305.7,145.3,305.7z M190.3,272.1L190.3,272.1L190.3,272.1z M220.5,254L220.5,254L220.5,254z M183.4,253.5
				L183.4,253.5L183.4,253.5z M225.9,211.5c0.1,0.2,0.2,0.4,0.2,0.6c0.3-0.3,0.6-0.7,0.9-1L225.9,211.5z"/>
		</g>
		<g>
			<path class="st1" d="M264.6,306.8c-9.5,0-13.4-5.4-14.9-8.5c-1.6-3.4-1.8-7-1.8-10.5c-1.2,0.3-2.6,0.5-4.1,0.5
				c-9.2,0-17-7.6-17-16.5c0-6.3,2.8-9.5,7.1-14.3c3.3-3.7,6.3-7.3,8.9-10.8c-4.7-0.4-7.9-2.4-9.8-4.2c-2.2-2.1-4.9-5.8-4.9-12
				c0-11.4,8.7-15.9,16.2-16.3c0,0,0.2,0,0.2,0l5-0.2c0.2-2.9,0.3-4.1,0.6-5.1c1.7-7.1,8-11.7,16-11.7c10.1,0,16.6,6.4,16.6,16.4
				c0,0.1,0,0.1,0,0.2c6.7-2.3,11.7-2.3,14.3-2.3c23.6,0,39.5,16.6,39.5,41.3c0,16.9-5.4,38.8-31.3,46.9c-6.1,1.9-14.1,3.2-20.2,3.2
				c-1.6,0-4.7,0-8-1.3C274.1,305,269.7,306.8,264.6,306.8z M281,249.8c-0.1,6.1-0.2,12.3-0.2,18.3c0,0.6,0,1.6,0,2.8
				c2.3-0.4,4.8-0.6,7.5-0.8c14.8-1,14.8-11.4,14.8-15.3c0-3.2-0.6-6.2-1.6-8.1c-0.8-1.5-2-3.1-6.4-3.1
				C291.9,243.6,287.7,244.4,281,249.8z"/>
		</g>
		<g>
			<path class="st1" d="M365.4,306.2c-3.3,0-7.3,0-11.1-1.6c-6.1-2.5-9.6-8-9.6-15c0-2.4,0.5-4.8,1.5-7c-4.1-1.3-8.7-4.3-10.2-11.3
				c-0.9-4.3-1.4-12.8-1.4-17c0-15.3,1.9-37.6,3.8-44.9c3-11.2,12.4-12.5,16.4-12.5c7.2,0,12,3,14.6,7c5.6-3.1,12-4.7,18.5-4.7
				c11.7,0,22.4,5.6,28.5,14.9c6,9.3,9,21.5,9,37.3c0,10.5-1.2,25.8-11.2,37.6C404.2,300.6,388.3,306.2,365.4,306.2z M386.4,231.4
				c-5.1,0-10,5.7-11.8,8.2c-4.4,5.9-6.5,11.9-6.5,18.3c0,0.5,0.1,2.7,0.2,4.2c0.1,2.6,0.2,4.1,0.2,4.9c0,2.1-0.3,4.4-1.1,6.5
				c4.1,0,4.8-0.1,6.9-0.4c14.6-2,17.2-7.4,17.2-21.6c0-2.6,0-10.5-1.8-16C388.3,231.4,387.1,231.4,386.4,231.4z M355.6,267.1
				C355.6,267.1,355.6,267.1,355.6,267.1C355.6,267.1,355.6,267.1,355.6,267.1z"/>
		</g>
		<g>
			<path class="st1" d="M478.6,309.8c-7,0-15.1-3.9-15.7-14.9c-0.2,0.2-0.4,0.3-0.7,0.5c-2.6,1.8-15.6,10.7-23.1,10.7
				c-7.9,0-16.5-6.8-16.5-17.7c0-5.8,2.6-10.1,7.8-13c-5.3-2.3-8.5-7.4-8.5-14.3c0-3.2,0.7-6,2.1-8.4c-1-2.2-1.5-4.7-1.5-7.5
				c0-4.5,1.4-7.6,3.1-9.8c-1.9-3.6-2.1-7.2-2.1-8.5c0-4.9,1.9-11.5,11.2-14.6c4.1-1.4,14.2-5.8,19.8-10.2l0.2-0.2
				c7.3-6,9.8-8,16.5-8c7.5,0,12.4,2.9,15,6.7h16c1.9,0,5.9,0,9.9,1.7c6.1,2.7,9.6,8.3,9.6,15.4c0,4.8-1.8,8.7-3.9,11.7
				c0.8,0.1,1.7,0.1,2.7,0.2c13.7,1.1,15.1,11.1,15.1,15.4c0,2.9-0.5,5.5-1.6,7.8c1.3,2.3,2.1,5.2,2.1,8.4c0,6.9-3.4,12-8.9,14.3
				c3.3,1.8,7.7,5.5,7.7,12.9c0,8.4-6.2,17.5-16.3,17.5c-5.2,0-14.4-4.6-23.4-11.1C495,299.4,492.9,309.8,478.6,309.8z M482.9,294
				L482.9,294L482.9,294z M475.3,294L475.3,294L475.3,294z M504.3,220.7L504.3,220.7L504.3,220.7z"/>
		</g>
		<g>
			<path class="st1" d="M601.3,309.6c-10.6,0-17-6.1-17-16.2v-16.3h-13.5v16.3c0,9.7-6.4,16.2-15.9,16.2c-10,0-16.4-6.4-16.4-16.2
				v-29c-6.7-2.3-11.5-8.9-11.5-16.8c0-5.8,2.6-9.4,4-11.3c8.8-11.8,10.8-18.2,14.5-29.9l0.2-0.7c2.1-6.8,7.6-10.8,14.7-10.8
				c5,0,9.3,1.7,12.3,4.5c1.9-0.9,4.2-1.5,7-1.5c3,0,5.8,0.6,8.1,1.8c3.2-3.7,8-5.2,12.4-5.2c10.6,0,16.9,6.1,16.9,16.2v1.4h6.3
				c9.6,0,16.1,6.3,16.1,15.7c0,10.1-6.2,16.3-16.1,16.3h-6.3v0.7h8.6c8,0,16.1,4.8,16.1,15.6c0,10.2-6.2,16.6-16.2,16.6h-8.5v16.3
				C617.2,305.4,608.6,309.6,601.3,309.6z M623.7,224.2L623.7,224.2L623.7,224.2z M597.2,210.5L597.2,210.5z"/>
		</g>
		<g>
			<path class="st1" d="M710,304.6c-18.4,0-30.6-4.3-36.2-6.9c-12.4-5.7-20.2-18.5-20.2-33.3c0-11.4,4-20.1,8.6-26.6
				c-1.4,0.1-2.7,0.2-4.1,0.3l-1.1,0.1c-4.6,0.4-6.3,0.5-7.3,0.5c-9.9,0-16.6-6.8-16.6-16.9c0-9.5,5.8-15.8,15.5-16.8
				c5.8-0.6,62.2-2.5,72.8-2.5c3.5,0,7.5,0,11.2,1.6c2.7,1.2,9.1,5,9.1,14.8c0,8-3.9,12.1-7.1,14.1c3.4,6.3,3.4,9.5,3.4,10.6
				c0,7.3-6,13-13.6,13.1c-2.7,3.2-6.8,4.9-10.8,4.9c-4.8,0-8.9-2.7-11.5-7.3c-0.4-0.8-0.9-1.8-1.4-2.7c-0.3-0.7-0.6-1.3-0.9-1.8
				c-0.3-0.5-0.8-1.4-1.3-2.4c-0.3-0.6-0.7-1.2-0.9-1.7c-4.5,3.8-10.3,10-10.3,17.5c0,3.4,1.1,4.2,2.7,5c3.3,1.7,9.1,2.5,17.4,2.5
				c1.5,0,2.8,0,3.9,0c5,0,6.6,0,9,0.6c7.3,1.8,11.8,7.8,11.8,15.6c0,7.5-3.6,13.3-9.8,15.9C718.1,304.6,713.8,304.6,710,304.6z
				 M707.6,250.1L707.6,250.1L707.6,250.1z M649.6,218.7L649.6,218.7C649.6,218.7,649.6,218.7,649.6,218.7
				C649.7,218.7,649.6,218.7,649.6,218.7z"/>
		</g>
	</g>
	<g>
		<g>
			<path class="st1" d="M853.1,312.7c-20.6,0-23.2-0.4-28-2.5c-5-2.1-8.6-5.6-10.9-10.3c-1.9,0.6-3.7,1-5.5,1.5l-0.3,0.1
				c-0.1,0-0.1,0-0.2,0c-0.4,0.1-45,9.8-52.7,9.8c-10.7,0-18.2-8.2-18.2-20c0-8.7,4.6-15.4,12.1-17.7c0.8-0.2,1.5-0.4,2.5-0.6V172.8
				c0-1.8,0-6.1,2.4-10.4c1.8-3.3,6.5-8.9,16.6-8.9c12.6,0,20.2,7.2,20.2,19.3v20.6h18.2c0.7,0,1.3,0,2,0.1v-20.7
				c0-14.2,9.8-19.3,19-19.3c12.9,0,20.3,7,20.3,19.3V192c3.3-2.2,5.9-4,7.7-5.6c0,0,0.1-0.1,0.1-0.1l0.3-0.2
				c7.7-6.2,11.5-9.4,18.8-9.4c10.7,0,19.7,9.5,19.7,20.6c0,10.5-6.7,15.7-17.9,23.1c0,0-0.1,0.1-0.1,0.1l-0.9,0.6
				c-7.3,4.7-14.8,9.5-27.7,16.3v36.5c2,0,4.4,0,6.8,0c1,0,2.1,0,3.1,0c0-0.7,0.1-1.3,0.1-1.6c0-0.1,0-0.2,0-0.2
				c0-0.5,0.1-2.4,0.2-4c0.2-5.2,0.3-7.8,0.5-9.5c1-7.1,6.2-14.5,18-14.5c10.1,0,14.9,4.7,17.2,8.7c2.5,4.4,2.5,9.1,2.5,11.9
				c0,6.4-0.5,28.2-6.6,37.4c0,0-0.1,0.1-0.1,0.1C885.4,312.7,876.6,312.7,853.1,312.7z M761.9,281.6L761.9,281.6L761.9,281.6z
				 M850.7,279.1L850.7,279.1L850.7,279.1z M791.1,231.9v34.7c1.9-0.4,4.2-0.9,7.3-1.5l3.4-0.7c3.9-0.8,5.6-1.1,8.4-1.1
				c0.4,0,0.7,0,1.1,0v-31.6c-0.6,0.1-1.3,0.1-2,0.1H791.1z M807.5,214.1L807.5,214.1L807.5,214.1z"/>
		</g>
		<g>
			<path class="st1" d="M935,315.1c-8.7,0-18-4.7-18-17.9v-4.7h-8.3c-11.5,0-19-7.2-19-18.2c0-5.6,2.2-11.8,7.9-15.3
				c-3.2-5.1-3.7-11.4-3.7-17.5v-25.9c0-6.4,0.5-12.9,4-18.1c-4.9-3.6-6.9-9.3-6.9-14.5c0-8.3,5-17.9,19.1-17.9h7.3
				c1.6-6.6,6.9-12.4,18-12.4c8.7,0,15.2,4.9,17.1,12.4h6.4c2.9,0,8.1,0.5,12.3,3.5c2.1-0.4,3.9-0.4,4.9-0.4h7.2
				c0.5-5.3,3.5-15.6,19.4-15.6c10.3,0,17.5,6.2,18.3,15.6h10.9c14.1,0,19.1,9.5,19.1,18.4c0,6.8-3.3,14.6-11.9,17.4
				c1.7,2,3.7,4.1,6,6.5l0.6,0.6c1.9,1.9,6.1,6.3,6.1,13.6c0,9.2-6.6,16.9-15.3,18.5c-1.8,6.5-5.8,15.4-11.2,24.6
				c4.1,3.3,8.2,5.8,15.3,10c0,0,0.1,0,0.1,0.1c3.9,2.4,10.3,6.3,10.3,16.2c0,11-8.5,19.9-18.8,19.9c-5.4,0-9.6-1.4-21.7-9.9
				c-3.6-2.6-6.6-5-9-7.1c-12.9,11.4-25.4,17.5-31.7,17.5c-7.6,0-14.4-4.8-17.5-11.6C950.3,311.7,942.4,315.1,935,315.1z
				 M962.2,276.2C962.2,276.2,962.2,276.2,962.2,276.2C962.2,276.2,962.2,276.2,962.2,276.2z M972.1,258.8c1.7,1,3.1,2.2,4.3,3.7
				c-1.1-2.3-2-4.4-2.8-6.5C973.1,257,972.7,257.9,972.1,258.8z M1011.3,237L1011.3,237L1011.3,237z M997.9,223.4
				c2.5,2,4.1,4.6,5.2,7.2c1-2.3,2.6-5,5.2-7c-2.4-3.3-4.3-6-5.6-8.3C1001.6,217.6,1000,220.3,997.9,223.4z M935,204.6
				c0.1,0.1,0.1,0.1,0.2,0.2c0,0,0.1-0.1,0.1-0.1c-0.1-0.1-0.1-0.2-0.2-0.2C935.1,204.5,935.1,204.6,935,204.6z M1003.5,169.7
				L1003.5,169.7L1003.5,169.7z"/>
		</g>
	</g>
</g>
<g>
	<g>
		<g>
			<path class="st0" d="M61.1,126.7c-0.1,6.9-0.6,21.7-4.5,37.6c-1.3,5.9-2.4,10.4-8.8,10.4c-1.9,0-9.4-0.8-9.4-8.4
				c0-2.4,0-2.7,2.7-13.6c4.2-17.4,4.2-36,4.2-45.7V54C45.2,40.2,48.1,37,62,37h11.8c13.8,0,16.8,3,16.8,16.9v103.6
				c0,13.6-3.5,16.9-17.4,16.9c-4.3,0-13.2,0-13.2-10.2c0-4.9,2.5-8.2,7-8.2c6.4,0,7.9,0,7.9-5.7v-23.7H61.1z M61.4,74.5h13.6V58.3
				c0-2.1-0.8-3.6-3.6-3.6H65c-2.9,0-3.6,1.6-3.6,3.6V74.5z M75.1,90.6H61.4v19.6h13.6V90.6z M98,80.8c0-13.6,6-16.5,14.1-17.2
				c-1.1-1.5-5.4-9.4-6.5-11.2c-4.8-7.9-5.2-8.7-5.2-11.1c0-4.6,5.5-7.5,9.6-7.5c4.2,0,5.7,2.1,10.2,8.8c4.9,7.3,7.5,12,7.5,15
				c0,3.4-2.2,5.1-3.3,5.8h18.4c3.4-6.7,6.6-13,10-21c2.5-6,4.2-9,9.4-9c4.5,0,11.1,2.2,11.1,8.1c0,3.6-3.3,9.3-11.5,22.6
				c12.4,2,12.4,11.8,12.4,16.5v21.7c0,13.3-5.7,17.4-17.2,17.4h-2.5v32.1c0,3.9,1.5,4.3,4.9,4.3c4.8,0,6.6-1,7.2-9.7
				c0.3-6.1,0.6-9.9,7.2-9.9c7.2,0,7.2,4.6,7.2,8.1c0,3-0.8,13.6-2.7,20.1c-2.7,9.1-9.7,9.1-16.8,9.1c-19,0-23.8,0-23.8-16.9v-37.2
				h-10.3c-0.9,21.3-4.8,31.6-9.4,39.1c-3.8,6-11.8,15.6-17.7,15.6c-5.1,0-9.3-4.5-9.3-9c0-0.3,0-2.1,0.8-3.3c0.6-1.1,6-6.4,9.1-9.4
				c9.4-9.4,9.8-27.6,9.9-33.3c-9.4-1.2-12.7-6.6-12.7-17.1V80.8z M156.5,85.2c0-3.3-1.6-5.1-5.1-5.1h-30.3c-3.4,0-5.1,1.8-5.1,5.1
				v12.7c0,3.5,1.8,5.1,5.1,5.1h30.3c3.3,0,5.1-1.6,5.1-5.1V85.2z"/>
		</g>
		<g>
			<path class="st0" d="M261.3,75.4l49.8-2.5c4.6-0.3,9.3,1.4,9.3,9.3c0,7.2-3.6,8.7-7.9,8.8l-51.1,2.5v16.6l56.7-2.7
				c2.7-0.1,9.6-0.4,9.6,8.8c0,8.4-4.8,9-7.9,9.1l-58.3,3v21.7c0,4.5,2.5,5.1,6.4,5.1c4.4,0,33.4,0,34.5-0.1c3.5-0.5,3.9-3,4.6-11.8
				c0.5-4.5,0.9-9.4,8.7-9.4c10.9,0,10.9,7.2,10.9,10.3c0,2.9-0.9,16-3.3,21c-3.8,8.1-12.4,8.1-18.7,8.1h-41.4
				c-13.5,0-21.4-1.8-21.4-17.4v-26.5l-46.3,2.2c-2.7,0.2-9.3,0.5-9.3-9.3c0-6.3,2.7-8.7,7.9-9l47.7-2.2V94.6l-39,2
				c-2.4,0.1-9.1,0.4-9.1-8.8c0-6.8,2.9-8.9,7.9-9.1l40.2-2.1V61.2c-0.9,0-1.6,0-4.6,0.2c-22.5,1.2-24,1.2-30.7,1.2
				c-6.4,0-12.9,0-12.9-9.6c0-8.5,5.5-8.5,13-8.7c19.8-0.4,49.3-1,80.4-5.8c3.9-0.6,22.2-4,24.6-4c7.5,0,7.9,7.8,7.9,9.9
				c0,7-4.4,8.5-13.5,10.2c-9.3,1.8-16.2,2.4-44.5,5.2V75.4z"/>
		</g>
	</g>
	<g>
		<g>
			<path class="st0" d="M389.7,43.9c0-2.1,0.6-4.5,4.8-4.5c3.1,0,4.8,1.2,4.8,4.5v8.9h7.6c0.9,0,4.8,0,4.8,4.5
				c0,3.4-2.1,4.5-4.8,4.5h-7.6v8.4c0,10.2-2.1,21-16,27.5c-7.2,3.4-14.3,4.5-16.6,4.5c-4.7,0-5-4.5-5-5.3c0-3.3,2-3.7,7.4-4.5
				c8.1-1.2,15.9-5,18.7-11.4c1.8-4,1.8-10.2,1.8-11.1v-8.2h-22v14.3c0,3.1-1.5,4.5-4.7,4.5c-2.4,0-4.8-0.7-4.8-4.5V61.9h-7.4
				c-0.9,0-4.8,0-4.8-4.5c0-3.5,2.2-4.5,4.8-4.5h7.4v-8.8c0-1.9,0.5-4.5,4.7-4.5c3.2,0,4.8,1.3,4.8,4.5v8.8h22V43.9z"/>
		</g>
		<g>
			<path class="st0" d="M472.5,43.9c6.6,0,9.6,2.3,9.6,9.6v34.8c0,7.5-3.3,9.6-9.6,9.6h-37.9c-6.6,0-9.6-2.4-9.6-9.6V53.6
				c0-7.6,3.4-9.6,9.6-9.6H472.5z M437.8,52.8c-2.3,0-3.2,1.2-3.2,3.1V86c0,2.1,1,3.2,3.2,3.2h31.5c1.9,0,3.1-0.9,3.1-3.2V55.9
				c0-2-1-3.1-3.1-3.1H437.8z"/>
		</g>
		<g>
			<path class="st0" d="M501.6,42.8c1.4,0,2.7,0.5,8,3.4c16.1,8.8,16.1,10.1,16.1,12.2s-2.4,5.3-4.8,5.3c-1.9,0-3.5-1.1-7.7-4
				c-3.7-2.6-8.3-5-12.7-7.4c-1.7-0.9-3.6-1.9-3.6-4.4c0-2.7,2.3-4.6,3.9-5C501.1,42.8,501.4,42.8,501.6,42.8z M557.5,53.9
				c0,3.7-6.3,18.7-13.6,27.1c-9.4,10.9-20.1,14.9-28.7,17.2c-4.3,1.2-9.6,2.2-11.7,2.2c-4.5,0-5-4-5-5.5c0-3.6,2-4.3,5.4-4.8
				c20.4-2.4,34.9-10.2,43.6-35.8c1.3-3.7,1.7-5,4.5-5c0.5,0,1.2,0.1,1.8,0.2C555.4,50,557.5,51.1,557.5,53.9z"/>
		</g>
		<g>
			<path class="st0" d="M399.2,119.8c5.3,0,7.2,2.6,7.2,6.3c0,2.7-2.8,22.5-19.3,35.6c-11.4,9-26.9,12-29.2,12c-4.3,0-4.8-3.9-4.8-5
				c0-3.1,1.4-3.5,6.7-4.8c11.9-3,24.2-7.7,31.7-22.3c1.9-3.7,4.1-9.7,4.1-11.6c0-1.4-0.9-1.4-2.7-1.4h-21.2
				c-3.6,4.9-12.7,15-17.6,15c-2.5,0-4.7-2.4-4.7-4.8c0-1.9,0.6-2.4,3.9-4.8c8.4-6.2,14-15.3,15-17.5c2.7-5.3,3.2-6.6,6.2-6.6
				c2.2,0,5.1,1.2,5.1,3.7c0,1.3-0.4,2.5-2.3,6.2H399.2z"/>
		</g>
		<g>
			<path class="st0" d="M432.6,147.5c0,2.2-0.7,4.6-5,4.6c-3.2,0-5.1-1.2-5.1-4.6v-31.3c0-2.2,0.7-4.6,5-4.6c3.2,0,5.1,1.2,5.1,4.6
				V147.5z M469.4,142.4c0,8.3-1.2,22.6-23.1,28.7c-6.5,1.8-12,1.9-13.5,1.9c-1.1,0-5.5,0-5.5-5c0-3.9,2.4-4.1,7.2-4.6
				c11.4-1.1,16.9-3.4,20.7-7.8c3.7-4.3,4.1-8.5,4.1-13v-27.4c0-2.2,0.7-4.7,5-4.7c3.2,0,5.1,1.2,5.1,4.7V142.4z"/>
		</g>
		<g>
			<path class="st0" d="M540,158.1c1.2,0,4.8,0.1,4.8,4.7c0,3.5-1.9,4.8-4.8,4.8h-54.1c-1.2,0-4.8,0-4.8-4.7c0-3.5,1.9-4.8,4.8-4.8
				H540z M534.7,116.4c1.1,0,4.8,0,4.8,4.7c0,3.7-2.2,4.8-4.8,4.8h-43.6c-1.1,0-4.8,0-4.8-4.7c0-4.1,2.6-4.8,4.8-4.8H534.7z"/>
		</g>
		<g>
			<path class="st0" d="M557.5,145.5c-1.7-5.6-3-8.4-4.4-11.4c-0.4-0.8-0.7-1.6-0.7-2.6c0-2.5,2.6-3.9,4.8-3.9
				c3.4,0,4.6,3.3,8.8,14.8c0.6,1.7,0.8,2.4,0.8,3.5c0,3.6-3.7,4.2-5.3,4.2C558.9,150.1,558.3,148,557.5,145.5z M602.4,130.1
				c0,0.3-1.6,14-9.4,25.3c-10.7,15.4-28.1,18-29.2,18c-3.3,0-4.2-3.2-4.2-4.7c0-2.7,1.4-3.1,6.5-4.6c5.8-1.7,18.7-6,24.6-23
				c1-2.8,1.2-3.6,2.7-10.8c0.4-1.9,1-4.5,4.4-4.5c0.4,0,0.9,0.1,1.4,0.2C601.9,126.7,602.4,128.7,602.4,130.1z M573.4,142
				c-1.4-5.6-2.3-8.4-3.6-11.7c-0.3-0.8-0.6-1.5-0.6-2.4c0-2.4,2.4-3.7,4.7-3.7c2.7,0,3.4,1.4,4.2,3.4c1.7,3.5,4.5,13.4,4.5,15.1
				c0,4.1-4.1,4.2-5.6,4.2C574.6,146.8,573.9,144.2,573.4,142z"/>
		</g>
		<g>
			<path class="st0" d="M662.8,119.8c5.3,0,7.2,2.6,7.2,6.3c0,2.7-2.8,22.5-19.3,35.6c-11.4,9-26.9,12-29.2,12c-4.3,0-4.8-3.9-4.8-5
				c0-3.1,1.4-3.5,6.7-4.8c11.9-3,24.2-7.7,31.7-22.3c1.9-3.7,4.1-9.7,4.1-11.6c0-1.4-0.9-1.4-2.7-1.4h-21.2
				c-3.6,4.9-12.7,15-17.6,15c-2.5,0-4.7-2.4-4.7-4.8c0-1.9,0.6-2.4,3.9-4.8c8.4-6.2,14-15.3,15-17.5c2.7-5.3,3.2-6.6,6.2-6.6
				c2.2,0,5.1,1.2,5.1,3.7c0,1.3-0.4,2.5-2.3,6.2H662.8z"/>
		</g>
		<g>
			<path class="st0" d="M735.8,116.4c1.2,0,4.6,0,4.6,4.2c0,3.7-2.7,4.1-3.5,4.2c-1.3,0.1-19.5,0.8-30,1c-1.4,2.2-1.9,3-4.5,7.1
				c4.5-2.9,8.6-3.2,10.2-3.2c5.2,0,8.9,2.4,10.8,7.1c3.3-1.3,12.7-4.2,15.3-4.2c4.4,0,4.4,4.1,4.4,4.8c0,3.2-2.2,4.1-4.4,4.6
				c-10.1,2.4-11.2,2.6-13.8,3.5c0.2,3,0.4,6.3,0.4,8.1c0,4,0,7.3-4.7,7.3c-4.5,0-4.5-3.2-4.5-5.6c0-1.1,0.1-5.6,0.1-6.6
				c-10.3,4.5-13.1,7.6-13.1,11.1c0,4.2,5.9,4.9,13.5,4.9c4,0,9.4-0.4,14.3-1.1c0.9-0.1,2.5-0.4,3.9-0.4c1.1,0,4.3,0,4.3,4.2
				c0,3.3-1.9,4-3.3,4.2c-6.1,1.4-15,1.5-17.4,1.5c-10.5,0-14.8-1.2-18.1-2.4c-4.2-1.7-7.1-5.3-7.1-9.7c0-10.3,12-16.8,21.7-21.1
				c-1.5-2.7-3.9-3-5.3-3c-2.2,0-8.6,0.6-15.2,8.4c-1.1,1.3-5.5,7.1-6.6,8.1c-0.6,0.6-1.7,1.4-3.3,1.4c-2.7,0-4.5-2.6-4.5-4.7
				c0-1.8,0.9-2.8,5.3-7.6c6.2-6.8,11.4-15.7,12.2-16.8c-1.7,0-9,0.1-10.4,0.1c-1.4,0-5-0.1-5-4.4c0-4.2,3.5-4.2,4.8-4.2
				c5-0.1,9.9-0.1,14.9-0.2c0.4-0.8,1.7-4.5,2-5.2c0.5-1.3,1.2-3,4.7-3c2.6,0,4.8,1.2,4.8,3.7c0,1.2-0.4,2.1-1.4,4.2
				c13.5-0.4,14.9-0.8,23.8-0.8H735.8z"/>
		</g>
	</g>
	<g>
		<g>
			<path class="st0" d="M116.8,291.1c-4.8,1.3-17.5,2.8-32.1,2.8c-8.2,0-14.4-0.6-18.8-1.1c-7-0.9-25.7-4.5-25.7-20.9
				c0-10.1,6.7-16.9,11.7-20.8c2.3-1.7,3.7-2.4,5.4-2.4c4.7,0,6.9,3.8,6.9,6.1c0,2.2-1.7,3.8-5.5,7.6c-4.4,4.2-4.8,6.2-4.8,8.4
				c0,9.3,16.3,10.4,28.2,10.4c9.4,0,19.8-0.9,27-2.3c5.9-1.1,6.1-1.1,7.6-1.1c1.2,0,6.3,0,6.3,6C123,288.4,121.3,289.9,116.8,291.1
				z M54.5,226.2c-3.2,0-8.4-0.1-8.4-6.4c0-6.5,4.5-6.5,8.6-6.5c1.6,0,14,0.3,16.6,0.3c3.8,0,25-0.5,29.9-0.7c1.2,0,5.1-0.2,6-0.2
				c3.7,0,8.5,0.3,8.5,6.2c0,4.1-1.3,4.8-8,8.9c-2.5,1.5-13.8,8.6-16.1,10.1c-2.7,1.7-4.3,2.4-6.2,2.4c-3.7,0-6.5-2.9-6.5-6.1
				c0-2.3,1.4-3.7,5.4-6.2c0.9-0.6,5.3-2.7,6.2-3.3C80.3,225.5,65,226.2,54.5,226.2z"/>
		</g>
		<g>
			<path class="st0" d="M159.7,210.6c0.9-2.5,3.2-3.5,5.7-3.5c6.2,0,7.1,3.3,7.1,5.8c0,1.1-0.2,2.3-1,7.3c9.4-0.2,18.3-0.5,28.4-1
				c0.8,0,1.8-0.1,2.3-0.1c4.2,0,6.6,1.8,6.6,6.2c0,3.6-1.7,5.5-4.9,6c-2.8,0.4-25.6,1.1-35,1.4c-3.4,16-8,31.8-13.4,47.2
				c-4.5,13-5.5,15.8-10.2,15.8c-2.2,0-7.4-1.2-7.4-6c0-1.1,0.1-2.2,2.3-7c3.7-8,8.2-21.4,10.8-30.8c1.6-5.8,3.3-12.9,4.6-19
				c-2.7,0.1-11.6,0.2-13.7-0.4c-1.6-0.4-3.4-2.1-3.4-5.7c0-3.4,1.3-5.7,4.9-6.2c0.7-0.1,12.9-0.1,14.4-0.1
				C158.2,218.5,159.3,211.9,159.7,210.6z M221.2,293.9c-1.5,0.4-6.7,1.3-17.1,1.3c-23.7,0-33.9-4-33.9-16.4
				c0-2.9,1.1-11.6,8.8-11.6c2.4,0,6.1,1.1,6.1,4.4c0,0.9-0.4,2.1-0.6,2.6c-0.5,1.2-0.9,2.2-0.9,3.2c0,2.7,2,4,5.5,4.7
				c2.6,0.6,6.4,0.9,10.5,0.9c6.5,0,11-0.5,17.2-1.1c1.2-0.1,1.8-0.2,2.7-0.2c4,0,6,2,6,5.9C225.5,291,223.9,293.2,221.2,293.9z
				 M220.5,254c-1.3,0.9-2.6,1-4.2,1c-0.7,0-4.6-0.3-6.9-0.4c-1.4-0.1-2.6-0.1-4.8-0.1c-6.6,0-11.7,0.4-13.2,0.5
				c-7.8,0.7-9,0.8-9.9,0.8c-5.5,0-5.5-5.2-5.5-6.1c0-3.1,1.5-5.2,5.8-6.1c6.5-1.4,17.6-1.8,24.5-1.8c16.3,0,16.3,2.6,16.3,7.5
				C222.6,250.6,222,252.9,220.5,254z M207.1,210.5c-0.2-0.7-0.3-1.1-0.3-1.7c0-2.4,2.4-3,3.6-3c1.9,0,2.3,1,4.3,5
				c2,4.1,3,7.1,3,8.5c0,2.1-1.7,3.2-3.7,3.2c-1.5,0-2.4-1-2.9-2.4c-0.9-2.4-1.2-3.3-1.9-4.8C208.6,213.9,207.6,211.8,207.1,210.5z
				 M218.8,208.4c-0.3-0.7-0.3-1.4-0.3-1.7c0-2.5,2.8-2.9,3.6-2.9c1.4,0,2.6,0.6,4.6,5.1c0.8,1.9,2.6,6.4,2.6,8.2
				c0,2.8-2.8,3.2-3.6,3.2c-2.2,0-2.9-2.2-3.2-3.2c-0.4-1.4-0.6-1.8-1.5-3.8C220.7,212.5,219.1,209.1,218.8,208.4z"/>
		</g>
		<g>
			<path class="st0" d="M258.6,236l-13.2,0.7c-1.4,0.1-7.3,0.4-7.3-6.2c0-6,5-6.2,6.8-6.3l14.1-0.6c0.2-4.1,0.5-11.2,0.8-12.4
				c0.7-3,3.5-4,6.3-4c5.8,0,6.6,3.3,6.6,6.4c0,2.5-0.9,15-1,17.8c12.2-9.7,21-9.9,25.3-9.9c16,0,29.5,9.8,29.5,31.3
				c0,27-14.8,34.4-24.3,37.4c-5.1,1.6-12,2.7-17.2,2.7c-2.5,0-7.9,0-7.9-6.3c0-5.7,4.2-6,11.9-6.5c8.5-0.6,24.2-4.7,24.2-25.3
				c0-5.9-1.5-21.2-18-21.2c-7.7,0-15,3.2-24.1,11.6c-0.2,7.7-0.3,15.3-0.3,22.9c0,3.2,0.2,17.3,0.2,20.2c0,3.6,0,8.5-6.4,8.5
				c-6.7,0-6.7-4-6.7-10.3c0-6.8,0.1-18.8,0.2-25c-3.9,5.9-6.7,10.2-8.7,13c-2.1,2.8-3.4,3.8-5.6,3.8c-3.3,0-7-2.7-7-6.5
				c0-2.5,0.8-3.4,4.6-7.7c6.4-7.2,12.3-14.8,17.1-23.1L258.6,236z"/>
		</g>
		<g>
			<path class="st0" d="M370,215.5c5.4-4.4,11.8-6.3,17.9-6.3c10,0,16.9,5.4,20.2,10.4c5.4,8.3,7.3,19.4,7.3,31.8
				c0,23.1-6.9,44.8-50,44.8c-5.3,0-10.7,0-10.7-6.6c0-6.1,5.7-6.1,7.4-6.1c9.1,0,10.1,0,13.6-0.5c18.7-2.6,25.8-11.3,25.8-31.5
				c0-10.9-1.2-30.1-15.1-30.1c-9.8,0-16.9,8.3-19.8,12.2c-6.3,8.4-8.5,16.6-8.5,24.3c0,1.4,0.4,7.8,0.4,9.1c0,2,0,6.5-6.4,6.5
				c-2.7,0-5.5-0.5-6.3-4.3c-0.7-3.3-1.2-10.9-1.2-14.9c0-15.2,1.9-36.3,3.5-42.4c0.5-1.9,1.5-5,6.7-5c5.4,0,7,2.5,7,5.6
				c0,1.4-0.5,3.8-0.8,5.3c-1.3,5.9-1.6,8.5-2.1,12.1C361,225.7,363.5,220.7,370,215.5z"/>
		</g>
		<g>
			<path class="st0" d="M494,266.7c10.9,10.3,22.4,15,26.7,16.7c2.9,1.2,4.3,2.2,4.3,5c0,3.3-2.2,7.5-6.3,7.5
				c-3.9,0-21.3-9.5-33.4-23.3v21.1c0,4.9-2.2,6.1-6.7,6.1c-5.2,0-5.7-3.5-5.7-6.1v-20.8c-2.4,2.6-7.6,8.1-16.4,14.3
				c-4.7,3.3-14.3,8.9-17.3,8.9c-4.1,0-6.5-4.3-6.5-7.7c0-2.9,1.5-3.9,4.2-5c9.4-3.6,18.5-8,27.4-16.7h-26.9c-2.7,0-5.4-0.7-5.4-5.6
				c0-5.3,3.5-5.5,5.4-5.5h35.5v-4c0-4.3,3.1-4.9,6.7-4.9c3.3,0,5.7,1.2,5.7,4.9v4h35.5c1.7,0,5.4,0.1,5.4,5.6
				c0,5.5-3.9,5.5-5.4,5.5H494z M502.3,210.6c2.9,0,9.5,0,9.5,7.1c0,4.1-2.9,7.4-5.8,10c-4.6,4.3-8.7,6.8-11.3,8.3
				c9.4,2.3,13.3,2.7,25.1,3.6c3.7,0.3,5.9,1.1,5.9,5.4c0,2.3-0.5,6.7-5.9,6.7c-3.7,0-22.3-1.9-39.7-8.9c-17,6.1-38,8.9-41.8,8.9
				c-5.7,0-5.7-5.5-5.7-6.5c0-5.1,3.5-5.3,6.5-5.6c2.4-0.2,15.6-1.4,26.8-4.2c-3-2-6.1-4.2-10.5-8.2c-4.6,2.5-12.8,6.4-16.5,6.4
				c-4.4,0-5.3-5-5.3-6.7c0-3.5,2.3-4.4,4.4-5.1c4.3-1.5,15.8-6.3,22.8-11.9c7.1-5.8,7.3-6,10.5-6c4.8,0,7.4,1.8,7.4,4.2
				c0,1.2-0.7,2-1,2.5H502.3z M466.5,220.5c-0.9,0.7-1.2,0.8-1.8,1.2c5.3,4.3,9,6.6,15,9.4c11-4.5,14.3-8.6,14.3-9.4
				c0-1.2-1.1-1.2-2.1-1.2H466.5z"/>
		</g>
		<g>
			<path class="st0" d="M560.8,293.4c0,1.4,0,6.2-5.9,6.2c-5.4,0-6.4-2.9-6.4-6.2v-41.1c-1.1,1.4-2.4,3-4.9,3
				c-3.7,0-6.6-3.6-6.6-7.6c0-2.5,1-3.9,2.1-5.4c9.9-13.3,12.2-20.9,16.2-33.5c0.7-2.3,2.1-3.8,5.2-3.8c2.3,0,6.8,0.9,6.8,5
				c0,3.1-3.1,12.5-6.5,20.7V293.4z M594.3,222.2v-11.4c0-2.1,0.2-6.2,6-6.2c4.9,0,6.9,1.6,6.9,6.2v11.4h16.3c1.6,0,6.1,0.1,6.1,5.7
				c0,4.3-1.6,6.3-6.1,6.3h-16.3v20.7h18.6c2.3,0,6.1,0.4,6.1,5.6c0,4.6-1.5,6.6-6.2,6.6h-18.5v26.3c0,2.2-0.2,6.2-5.9,6.2
				c-5.1,0-7-1.7-7-6.2v-26.3h-25.5c-1.6,0-6.2,0-6.2-5.7c0-4.6,1.7-6.5,6.2-6.5h25.5v-20.7h-13.9c-5.4,14-7.1,14.7-10.3,14.7
				c-3.3,0-6.8-2.8-6.8-6c0-1.5,0.1-1.7,3.8-8.6c3.8-7.1,5.3-12.9,7.3-21.1c0.7-2.8,1.4-5.2,5.4-5.2c2.5,0,6.5,1.1,6.5,4.8
				c0,2.4-1.6,8.3-1.9,9.4H594.3z"/>
		</g>
		<g>
			<path class="st0" d="M657.3,228.1c-1.2,0.1-6.5,0.6-7.6,0.6c-5.8,0-6.6-4.1-6.6-6.9c0-4.3,1.7-6.4,6.5-6.9
				c5.2-0.5,61.1-2.4,71.8-2.4c5.7,0,10.3,0,10.3,6.4c0,6.7-4.6,6.7-10.1,6.7c-8,0.1-14.1,1.7-24.2,7.9c-6.9,4.2-20.1,15-20.1,29.7
				c0,13.7,11.6,17.5,30.1,17.5c8,0,8.9-0.1,10.4,0.3c3.3,0.8,4.3,3.2,4.3,5.9c0,7.7-6,7.7-12.1,7.7c-14.2,0-25.3-2.9-32.1-6
				c-10-4.6-14.3-14.6-14.3-24.2c0-7.3,1.8-16.8,12.8-27.9c5.7-5.7,9.7-8.1,14-10.6C679.4,226.6,668.3,227.3,657.3,228.1z
				 M706,240.2c-0.3-0.6-0.5-1.3-0.5-1.9c0-1.9,2.2-3,3.6-3c1.6,0,2.4,0.8,4.6,4.5c1.2,2,3.7,7,3.7,8.6c0,2.5-2.6,3.2-3.8,3.2
				s-2.1-1-2.7-2.1c-0.7-1.3-1.6-3.3-2.3-4.6C708.2,244.2,706.4,240.9,706,240.2z M716.7,235.5c-0.4-0.8-0.5-1.4-0.5-2
				c0-1.8,2.1-2.9,3.5-2.9c1.8,0,2.5,1.2,4.4,4.3c0.7,1.1,3.9,6.3,3.9,8.7c0,2.1-2.1,3.1-3.7,3.1c-1.3,0-2.3-1.1-2.6-1.6
				c-0.4-0.8-2.1-4.3-2.4-4.9C718.9,239.4,717,236.2,716.7,235.5z"/>
		</g>
	</g>
	<g>
		<g>
			<path class="st0" d="M761.9,172.8c0-2.4,0-9.3,9-9.3c7.9,0,10.2,3.4,10.2,9.3v30.6h28.2c2.7,0,8.2,0,8.2,9.2
				c0,8.8-4.9,9.3-8.2,9.3h-28.2v56.7c7.3-1.2,7.9-1.3,22.6-4.3c3.7-0.8,4.6-0.9,6.4-0.9c5.2,0,7.5,3.9,7.5,8.8
				c0,6.9-3.5,7.6-11.5,9.6c-8.7,2-45.1,9.6-50.5,9.6c-8.2,0-8.2-9.3-8.2-10c0-2.1,0.5-6.7,5-8.1c1.5-0.4,2.5-0.6,9.6-1.6V172.8z
				 M840.7,278.7c0,5.2,1.8,5.2,16.8,5.2c11.8,0,12.6,0,13.2-11.1c0.2-1.9,0.3-10.9,0.6-12.7c0.8-5.5,5.5-6,8.1-6
				c9.7,0,9.7,6.3,9.7,10.6c0,7.5-0.9,25.8-4.9,31.9c-3.9,5.7-8.2,6-31,6c-20.2,0-21.3-0.5-24-1.7c-7.8-3.3-7.8-12-7.8-15.9V172.8
				c0-2.6,0-9.3,9-9.3c7.8,0,10.3,3,10.3,9.3v37c11.4-6.6,19.5-11.8,24.1-15.7c7.2-5.9,9-7.3,12.8-7.3c5.1,0,9.7,4.8,9.7,10.6
				c0,4.5-1.5,6.9-13.3,14.7c-8.7,5.5-16.8,10.8-33.3,19.2V278.7z"/>
		</g>
		<g>
			<path class="st0" d="M965.7,220.7c0.1-0.5,0.6-1,1.2-1.7c6.2-6.6,7.7-8.1,11.1-13.8c4-6.6,4.8-7.7,8.7-7.7c4.9,0,8.8,3.3,8.8,7.3
				c0,4.2-4.8,11.4-8.1,15.9c-3.9,5.4-9,12.8-13.6,12.8c-1.4,0-5.5-0.6-8.1-5.1v12.9c0,13.8-3,16.8-16.8,16.8h-5.7v8h17.8
				c5.7,0,9,2.2,9,8.2c0,7.2-5.1,8.1-9,8.1h-17.8v14.7c0,3.4-0.6,7.9-8.2,7.9c-7.8,0-8-5.2-8-7.9v-14.7h-18.3c-3.3,0-9-0.6-9-8.2
				c0-8.1,6.9-8.1,9-8.1H927v-8h-6.1c-14.1,0-16.9-3.3-16.9-16.8v-25.9c0-13.9,3.1-16.8,16.9-16.8h6.1v-7.8h-16.8
				c-2.1,0-9.1,0-9.1-8c0-7.9,7.2-7.9,9.1-7.9H927v-5.4c0-6.7,5.4-7,8.5-7c4.3,0,7.6,1.9,7.6,7v5.4h15.9c4,0,8.2,0.9,9.2,6.8
				c1.8-3,4.5-3.6,8.1-3.6h17.1V170c0-6.4,4.5-7.5,9.5-7.5c5.8,0,8.4,2.8,8.4,7.5v8.1h20.8c4.2,0,9.1,1,9.1,8.4
				c0,8.4-6.9,8.4-9.1,8.4h-55.8c-6,0-8.7-2.2-9.2-7.5c-1.8,3-4.6,3.5-7.9,3.5h-16v7.8h5.7c13.8,0,16.8,3,16.8,16.8V220.7z
				 M927.5,222v-10.8h-5.4c-2.7,0-3.6,1.4-3.6,3.6v7.2H927.5z M927.5,233.3h-9v7.8c0,2.2,0.9,3.6,3.6,3.6h5.4V233.3z M942.9,222h9.2
				v-7.2c0-2.6-1.2-3.6-3.6-3.6h-5.5V222z M942.9,233.3v11.4h5.5c2.4,0,3.6-1,3.6-3.6v-7.8H942.9z M1011.3,237
				c1.5-4.6,3-6.7,7.6-6.7c5.2,0,8.8,3.1,8.8,6.6c0,3.3-4.2,15.9-15.1,32.7c7.8,7.7,12.3,10.3,23.1,16.8c3.9,2.4,5.5,3.8,5.5,7.6
				c0,5.7-4.3,9.9-8.8,9.9c-2.4,0-4.7-0.1-15.9-8.1c-8.2-5.8-12.9-10.8-14.7-12.9c-12,12.4-26.8,21.4-31.8,21.4
				c-5.2,0-9.3-4.8-9.3-9.9c0-3.5,2-5.1,6-7.2c13.5-7.2,17.4-9.9,24.7-17.7c-10.2-16.5-13-30.4-13-32.5c0-5.1,5.4-6.9,8.7-6.9
				c5.7,0,6.6,3.5,8.1,8.8c2.7,9.3,5.7,14.8,7.2,17.1C1005.3,251.4,1007.7,247.5,1011.3,237z M1027.4,204.6
				c3.3,4.8,6.7,8.4,11.4,13.3c1.6,1.7,3.3,3.5,3.3,6.6c0,4.7-3.8,8.8-8.7,8.8c-2.4,0-5.1,0-15-13c-8.5-11.2-8.8-13.3-8.8-15.6
				c0-3.8,3.3-7.3,9.1-7.3C1022.3,197.4,1023.5,199.1,1027.4,204.6z"/>
		</g>
	</g>
</g>
</svg>
