<?xml version="1.0" encoding="utf-8"?>
<!-- Generator: Adobe Illustrator 26.3.1, SVG Export Plug-In . SVG Version: 6.00 Build 0)  -->
<svg version="1.1" id="レイヤー_1" xmlns="http://www.w3.org/2000/svg" xmlns:xlink="http://www.w3.org/1999/xlink" x="0px"
	 y="0px" viewBox="0 0 128 188" style="enable-background:new 0 0 128 188;" xml:space="preserve">
<style type="text/css">
	.st0{fill:#FFFFFF;}
</style>
<path class="st0" d="M127.8,106.4c-0.3-1.3-0.6-2.1-0.7-2.4s-0.1-0.7,0-1.3c0-0.6,0-2.3-0.3-3.5c-0.3-1.2-1.3-4.1-1.9-5.3
	c-0.6-1.3-4.1-7.7-6.8-10.8c-2.7-3.1-6.2-6.2-10.7-8.3c-4.5-2.1-9.4-2.9-11.9-3.2c-2.5-0.3-6.4-1.5-7.8-3.3c-1.4-1.8-2.2-2.5-2.8-4
	c0,0,0.4-0.6,0.6-1c0.2-0.4,0.3-1,0-1.2c-0.3-0.3-0.6-0.3-0.6-0.3s-0.6-0.5-0.7-0.6c-0.1-0.1-0.2-0.4-0.6-0.5
	c-0.4-0.1-0.7-0.1-0.7-0.1s-0.4-0.3-0.6-0.4c-0.3,0-0.7-0.1-1.3,0.4c-0.7,0.4-3.1,2.1-3.4,2.4c-0.4,0.3-0.6,0.3-0.6,0.3
	S75.8,63,74,62c-1.7-1-2.9-1.9-3.7-2.7c-0.8-0.8-1.4-1.4-1.4-1.4s1.2,0.1,2.2-0.6c1-0.8,1.9-2.1,2.1-3.7c0.2-1.6,0.1-3.5-0.4-5.3
	c-0.5-1.8-2-4.6-3-6.3s-3.2-4.6-3.3-4.9c0,0,0.1-1-0.5-2.4c-0.6-1.4-2.3-2.5-3.3-3.1c-1.1-0.6-3.9-2.3-4.5-2.8
	c-0.5-0.5-0.9-1-0.9-1.2c0-0.2,0-4.2,0-4.2s1-0.3,1.7-0.8c0.7-0.4,1.9-1.2,2.1-1.4c0,0,0.8,0,1.2,0c0.3,0,1.5-1.1,1.9-1.2
	c0.4-0.1,1-0.1,1.4-0.7c0.4-0.6,0.8-1.1,0.8-1.1s0.6,0,1-0.8c0.5-0.8,0.6-1.8,0.5-2.4c-0.1-0.6-0.3-1-0.2-1.4
	c0.1-0.4,0.5-1.2,0.3-1.9c-0.2-0.8-0.6-1.2-0.8-1.3c-0.2-0.1-0.4-0.3-0.4-0.3s0.2-2.5-1.4-5.1c-1.6-2.6-5.4-2.7-6.5-2.6
	c0,0-0.3-0.6-0.4-0.7c0-0.2,0-0.4-0.2-0.2c-0.1,0.2-0.3,0.4-0.3,0.4S57.5,1.2,57.4,1c0-0.1-0.1-0.3-0.2-0.1
	c-0.1,0.2-0.3,0.5-0.3,0.5S56.8,1,56.6,0.9c0,0,0.1-0.4-0.2-0.4c0,0,0-0.3,0-0.4c0-0.1-0.1-0.3-0.2,0c-0.1,0.3-0.9,1.3-1.1,1.8
	c-0.2,0.5-0.3,0.9-0.3,0.9s-1.6-0.3-3.3,0.5c-1.7,0.7-3.6,3.6-3.8,4.1C47.5,7.8,47.5,8,47.5,8l0.4,0.5c0,0,0.1,0.3-0.1,0.5
	c-0.2,0.2-0.4,0.3-0.4,0.3s-0.2,0-0.4-0.1C46.9,9,47,9,47,9l-0.2,0c0,0,0,0.3,0.1,0.4c0.1,0.1,0.3,0.2,0.4,0.2c0,0-0.8,0.6-1.4,0.9
	c-0.6,0.3-1.4,0.9-1.5,1c-0.1,0.1-0.2,0.3,0.1,0.6c0.3,0.3,0.9,0.9,0.9,0.9s0,0.4-0.2,0.6c-0.2,0.2-0.4,0.5-0.5,0.6
	c-0.1,0.1-0.2,0.3-0.1,0.5c0,0.2,0.3,0.4,0.3,0.4s-0.4,0.1-0.5,0.4c-0.1,0.2,0,0.5,0.2,0.7c0.2,0.1,0.3,0.4,0.1,0.7
	s-0.5,0.8-0.6,1.2c-0.1,0.4-0.3,1.2,0.7,1.6c1,0.4,2.6,0.9,3.3,1.4c0.7,0.5,1.2,1.1,1.5,2c0.3,0.9,0.5,2.2,0.6,2.7
	c0,0.5,0,0.8,0,0.8s-0.6,0.8-1.7,0.9c-1.1,0.1-2.5-0.1-3-0.2c-0.6-0.1-1.8-0.2-3.5,1.4c-1.7,1.6-2.6,3.3-2.9,3.5
	c-0.3,0.3-3.3,1.7-5.1,3.2c-1.8,1.5-4.1,3.9-4.3,6.2c-0.2,2.3,0.7,3.6,1.2,4.2c0.5,0.6,2.2,2.1,2.4,2.3c0,0-1.2,2.9-1.7,4
	c-0.5,1.1-0.8,1.8-0.8,1.8s-1.6-0.8-3.1-1.2c-1.6-0.4-5.2-1-7.3-1.5s-5.6-1.5-6.7-1.9c-1.1-0.4-1.4-0.6-1.6-0.8s0-1.7,0.1-2.2
	c0-0.6,0.4-2.5,0.4-3.6c0.1-1.1,0.1-2.3,0.1-2.9c0-0.6-0.3-1-0.8-1.5c-0.5-0.4-1.3-1.2-1.5-1.4c-0.2-0.3-0.4-0.4-0.5-0.2
	c-0.1,0.2,0,0.9,0.3,1.3c0.3,0.4,0.5,0.7,0.6,0.9c0.1,0.2,0.2,0.3,0.1,0.3c0,0.1,0,0.1,0,0.1s-0.4-0.1-0.8-0.1c-0.4,0-0.6,0-0.6,0
	s-1.1-0.3-1.3-0.3c-0.3,0-0.5-0.1-1.4,0.4c-0.9,0.5-1,0.7-1,0.8c0,0.1,0,0.5,0.4,0.6c0.3,0,0.8-0.1,1-0.1c0.2,0,0.4,0.1,0.4,0.1
	s0.6,0.7,0.9,1.1c0.2,0.4,0.3,0.8,0.3,1c0,0.2,0,0.7-0.2,1.1C8.5,44,8.1,45.7,8,47s0,2.2,0.1,2.6c0.2,0.4,0.7,0.9,1.8,1.5
	c1.1,0.6,4.7,2.5,6.3,3.2s6,3,7.7,3.7s5,2.5,6.2,2.6c1.2,0.1,2.3,0.1,3.6-1.2c1.3-1.3,3.6-5.4,4.2-7c0,0,0,2,0.1,2.7
	c0.1,0.7,0.1,3.1,0.1,3.8c-0.1,0.7-1,2.3-2,3.9c-1,1.6-3.2,5-4,6.2c-0.8,1.3-2.5,4.3-3.4,6.2c-0.9,1.9-3.4,9.2-4,11.1
	c-0.6,1.9-3.9,12.5-4.2,13.7c-0.3,1.2-2.9,10.1-3.1,11c-0.3,0.9-2.8,10.3-3.3,12.2c-0.5,1.9-2.6,8.9-3,10.8c-0.5,1.8-3,10.5-3.4,12
	c-0.4,1.4-2.9,10-3.3,11.4c-0.5,1.5-2.4,8.5-2.9,10.1c-0.5,1.6-1.2,4.1-1.3,4.4C0,172.2,0,172.2,0,172.2s1,2.1,1.9,3.4
	c0.8,1.3,3.3,4.4,5.2,5.8c2,1.5,5,2.9,10.2,2.8c5.2-0.1,11.1-0.8,13-1.3c1.9-0.4,5.7-0.8,7.2-0.2c1.5,0.6,3.3,1.7,4.9,2.8
	c1.6,1.1,4,2.6,8.2,2.4c4.2-0.2,10.1-1.9,12.4-2.7c2.3-0.8,5.4-1.6,9.1-1c3.7,0.6,6.5,1.9,9.8,1.7c3.3-0.2,5.2-0.8,6.8-3.4
	c1.6-2.6,1.5-5.5,3.1-6.9c1.6-1.5,4.3-1.2,5.4-1.3c1.1-0.1,4-0.4,6.1-2.7c2.2-2.2,5.4-5.3,6.7-7.2c1.2-1.9,2.4-3.5,3.7-4.9
	c1.3-1.4,2.6-2.2,2.7-4.4c0.1-2.3-0.3-4.5-0.4-5.8c-0.1-1.3-0.3-3.2-0.3-5.2c0-2,0.2-4.5,1.2-6.5c1-2,3.2-3.1,4.5-3.8
	c1.3-0.7,3.4-1.1,3.5-3.3c0.1-2.2-0.8-4.1-1.5-5.8c-0.7-1.7-1.8-4.3-2-5.3c-0.1-1.1,0.1-2,0.2-2.1c0.1-0.2,0.4-0.8,2-1.9
	c1.5-1.1,3.3-2.1,3.9-4.2C128.1,109.1,128.1,107.6,127.8,106.4z M58.1,2.6l0-0.2l0.2-0.2c0,0,0.1,0.1,0.1,0.2c0,0.1,0,0.2,0,0.2
	L58.1,2.6L58.1,2.6z M57.1,1.6c0,0,0.1-0.1,0.2-0.1c0.1-0.1,0.1,0,0.1,0.1c0,0.1,0,0.4,0,0.4s0,0.1-0.1,0.2
	c-0.1,0.1-0.2,0.1-0.2,0.1V1.6z M56.6,1.7c0.1,0.1,0.1,0.2,0.1,0.4c0,0.2,0,0.2,0,0.2l-1.3,0c0,0,0.4-0.5,0.7-0.6
	C56.6,1.6,56.6,1.6,56.6,1.7z M55.8,1.2c0.2-0.3,0.4-0.4,0.4-0.4c0,0,0.2,0.2,0.2,0.4c0,0.2,0,0.2,0,0.2s-0.2,0-0.5,0.2
	C55.7,1.7,55.4,2,55.4,2S55.6,1.5,55.8,1.2z M55.4,2.6c0.1-0.1,0.6-0.2,0.9-0.1c0.3,0,0.4,0.1,0.4,0.2s0.1,0.1,0.1,0.1l-1.5,0
	C55.4,2.8,55.4,2.6,55.4,2.6z M78.9,70.7c-0.8,2.6-2.2,7-3.4,8.7C74.3,81,71.8,82,69,79.7c-2.8-2.3-5-8.1-6.3-10.6
	c-1.3-2.6-3.9-5.2-5.2-6.7c-1.3-1.5-2.3-2.8-2.6-4.4c-0.4-1.6,1.1-4.1,1.6-4.8c0,0-0.3,1.8,1.3,3.5c1.6,1.7,3.9,1.4,3.9,1.4
	s-0.1,2.8,1.7,4.3c1.8,1.5,3.1,2.3,7.2,3.1c4.1,0.8,4.3,1.1,4.8,1.4c0.5,0.4,0.8,0.9,2.7,0.5c1.9-0.3,2.6-0.4,2.6-0.4
	S79.7,68.2,78.9,70.7z"/>
</svg>
