<?xml version="1.0" encoding="utf-8"?>
<!-- Generator: Adobe Illustrator 26.4.1, SVG Export Plug-In . SVG Version: 6.00 Build 0)  -->
<svg version="1.1" id="レイヤー_1" xmlns="http://www.w3.org/2000/svg" xmlns:xlink="http://www.w3.org/1999/xlink" x="0px"
	 y="0px" viewBox="0 0 120 120" style="enable-background:new 0 0 120 120;" xml:space="preserve">
<style type="text/css">
	.st0{fill:#FFFFFF;}
</style>
<g>
	<path class="st0" d="M60,23.5c5.3,0,9.7-4.3,9.7-9.7c0-5.3-4.3-9.7-9.7-9.7c-5.3,0-9.7,4.3-9.7,9.7C50.3,19.2,54.7,23.5,60,23.5z"
		/>
	<path class="st0" d="M85.3,0.3c-2-0.8-4.3,0.1-5.1,2.1l-7.7,17.2c-1.8,4.1-5.9,6.7-10.3,6.7H60h-2.2c-4.5,0-8.5-2.6-10.3-6.7
		L39.8,2.4c-0.8-2-3.1-2.9-5.1-2.1c-2,0.8-3,3.2-2.2,5.2l17,38.7l-11,38.9h11.6v32.4c0,2.5,2,4.5,4.5,4.5c2.5,0,4.5-2,4.5-4.5V83.1
		h1.6v32.4c0,2.5,2,4.5,4.5,4.5c2.5,0,4.5-2,4.5-4.5V83.1h11.6l-11-38.9l17-38.7C88.3,3.5,87.4,1.1,85.3,0.3z"/>
</g>
</svg>
