<?xml version="1.0" encoding="utf-8"?>
<!-- Generator: Adobe Illustrator 26.4.1, SVG Export Plug-In . SVG Version: 6.00 Build 0)  -->
<svg version="1.1" id="_x32_" xmlns="http://www.w3.org/2000/svg" xmlns:xlink="http://www.w3.org/1999/xlink" x="0px" y="0px"
	 viewBox="0 0 120 120" style="enable-background:new 0 0 120 120;" xml:space="preserve">
<style type="text/css">
	.st0{fill:#FFFFFF;}
</style>
<g>
	<path class="st0" d="M22.7,87.7C22.7,87.7,22.7,87.7,22.7,87.7l-1.9,0.6L22.7,87.7z"/>
	<path class="st0" d="M106.6,57.3C122.9,33.1,118,12.7,103,4.2c-14.1-8-22.2-0.7-31.2,1.7c-11.4-7.6-27.2-8.5-47,1.5
		C15,7,3.3,16.7,5.3,26.1c0.7,3.1,2.5,6.2,4.6,9.1c0,0.2,0,0.4,0,0.5c0,0.8,0.1,1.6,0.2,2.3c0.3,2.2,0.5,4,0.5,5.6
		c0,0.2,0,0.4,0,0.7c-2.1,0.7-5,1.5-7.3,1.3c0,0,2.6,2.1,6.6,2.7c-0.2,0.5-0.3,1-0.5,1.4c-0.8,1.9-2.2,3.8-4.2,6.1
		c-0.6,0.6-1,1.3-1.3,2c-0.3,0.7-0.5,1.4-0.5,2.1c0,0.8,0.2,1.6,0.5,2.2c0.5,0.9,1.2,1.6,1.8,2c0.6,0.5,1.2,0.8,1.5,1
		c0,0,0.2,0.3,0.3,0.6c0.1,0.3,0.2,0.8,0.2,1.1c0,0.2,0,0.4-0.1,0.5l0,0.1l0,0l0,0v0l0,0h0C7.3,67.6,7,68,6.8,68.4
		c-0.2,0.4-0.4,0.9-0.4,1.4c0,0.6,0.2,1.1,0.4,1.5c0.4,0.6,0.8,1,1.1,1.3c0.1,0.1,0.2,0.1,0.3,0.2c0,0.1-0.1,0.2-0.1,0.3
		c-0.1,0.2-0.2,0.4-0.2,0.7c-0.1,0.3-0.1,0.6-0.1,1c0,0.4,0.1,0.8,0.3,1.2c0.2,0.5,0.6,0.9,1,1.1l0.1,0.1l-0.1-0.1
		c0.5,0.3,0.7,0.6,0.8,0.9c0.1,0.3,0.2,0.8,0.2,1.4c0,0.7-0.1,1.6-0.1,2.6c0,0.3,0,0.6,0.1,1c0.1,0.6,0.2,1.2,0.5,1.9
		c0.4,1,1.2,2,2.3,2.7c1.1,0.7,2.6,1.1,4.3,1.1c1.6,0,3.4-0.3,5.5-1l0,0c1.7-0.6,3.2-0.8,4.5-0.8c1.8,0,3.3,0.5,4.6,1.3
		c1,0.6,1.9,1.4,2.7,2.4c1.2,1.5,2.3,3.4,3.3,5.6c0.9,2.1,1.7,4.5,2.4,6.7c0.4,1.5,0.6,2.8,0.6,4c0,3.1-1.1,5.6-2.2,7.4
		c-0.6,0.9-1.1,1.6-1.5,2c-0.2,0.2-0.4,0.4-0.5,0.5l-0.1,0.1l0,0l0,0l0.8,0.9l1.9,2.1c0.1-0.1,1.5-1.3,2.9-3.6
		c1.4-2.2,2.8-5.5,2.8-9.5c0-1.6-0.2-3.4-0.8-5.2c-1.3-4.2-2.9-8.7-5.4-12.4c-1.3-1.8-2.8-3.4-4.7-4.6c-1.9-1.2-4.2-1.9-6.7-1.9
		c-1.8,0-3.7,0.3-5.8,1l0,0c-1.8,0.6-3.2,0.8-4.3,0.8c-0.7,0-1.3-0.1-1.6-0.3c-0.6-0.2-0.8-0.5-1.1-0.8c-0.2-0.3-0.3-0.7-0.4-1.1
		c0-0.1,0-0.3,0-0.4c0-0.6,0.1-1.5,0.1-2.6c0-0.9-0.1-1.9-0.5-2.9c-0.3-0.8-0.9-1.6-1.6-2.2c0-0.1,0.1-0.1,0.1-0.2
		c0.1-0.2,0.2-0.5,0.2-0.7c0.1-0.3,0.1-0.6,0.1-1c0-0.3-0.1-0.8-0.2-1.2c-0.2-0.4-0.5-0.8-0.9-1.1c-0.2-0.1-0.3-0.3-0.5-0.4
		c0.3-0.4,0.5-0.8,0.6-1.3c0.2-0.6,0.3-1.2,0.3-1.7c0-1-0.2-2-0.6-2.8c-0.2-0.4-0.4-0.9-0.7-1.2c-0.3-0.4-0.7-0.8-1.2-1.1
		c-0.2-0.1-0.5-0.3-0.7-0.5c-0.4-0.3-0.7-0.6-0.9-0.8c-0.1-0.1-0.2-0.2-0.2-0.3c0-0.1,0-0.1,0-0.2c0-0.1,0-0.2,0.1-0.4
		c0.1-0.2,0.3-0.5,0.6-0.9c2.2-2.5,3.8-4.8,4.9-7.2c1.1-2.4,1.5-4.9,1.5-7.7c0-1-0.1-2-0.2-3.1c2.9,3.1,5.5,5.1,5.5,5.1
		s-1.6-13.8,2-16.6c0,0,14.2,27.2,27.2,24.7l8.9,7.7c0,0,2-13,8.1-14.2c6.1-1.2,5.7,10.1-1.6,19.5v12.1c-0.6,1-1.1,2-1.6,3
		c-0.2,0.5-0.4,1.1-0.5,1.8c-0.1,0.7-0.2,1.4-0.2,2.3c0,3.4,1,8.3,4.1,14.2c2,3.8,4.8,6.6,7.1,8.5c2.3,1.9,4.1,2.9,4.2,2.9l1.6-2.9
		l0.3-0.6l0,0c0,0-1.6-0.9-3.6-2.5c-2-1.7-4.4-4.1-6-7.2c-2.9-5.4-3.6-9.7-3.6-12.3c0-0.6,0-1.2,0.1-1.6c0.1-0.4,0.2-0.7,0.2-0.8
		c0.9-2.1,2.6-4.6,4.5-7.4c3-4.1,6.7-8.7,10-13.8c3.3-5,6.3-10.5,7.6-16.3c0.5-2.4,0.8-4.8,0.8-7.4c0-7.2-2.1-14.9-6.6-21.3
		c6.7,1.5,15.2,6,10.7,20.4c-4.6,14.6-16.2,35.1-6.1,49.6c8.5,12.1,21.9,8.1,21.9,8.1C103.4,88.1,93.5,76.9,106.6,57.3z"/>
</g>
</svg>
