<?xml version="1.0" encoding="utf-8"?>
<!-- Generator: Adobe Illustrator 26.3.1, SVG Export Plug-In . SVG Version: 6.00 Build 0)  -->
<svg version="1.1" id="_x32_" xmlns="http://www.w3.org/2000/svg" xmlns:xlink="http://www.w3.org/1999/xlink" x="0px" y="0px"
	 viewBox="0 0 36 46" style="enable-background:new 0 0 36 46;" xml:space="preserve">
<style type="text/css">
	.st0{fill:#FFEE66;}
</style>
<g>
	<path class="st0" d="M35.6,38.6c-0.2-0.6-0.4-1.3-0.7-1.8c-0.5-0.9-1.3-1.7-2.1-2.2c-0.6-0.4-1.3-0.8-1.9-1.2
		c-0.4-0.2-0.7-0.4-1.1-0.4c-0.1-1-1.8-1.9-1.7-4.8c0-1.5,1.5-4.5-0.4-6.9c0.2-0.3,0.4-0.5,0.6-0.8c0.4-0.6,0.7-1.4,0.9-2.3
		c0.1-0.3,0.1-0.5,0.1-0.8c0-0.5-0.1-1.1-0.4-1.4c-0.1-0.4-0.4-0.6-0.5-0.9c0.1-0.4,0.3-0.9,0.4-1.6c0.1-0.9,0.4-2,0.4-3.1
		c0-0.7-0.1-1.4-0.2-2.2c-0.1-0.5-0.3-1.2-0.5-1.7c-0.4-0.8-0.9-1.5-1.5-2.2s-1.4-1-2.4-1.4c-0.4-0.4-0.9-0.9-1.3-1.3
		c-0.7-0.6-1.5-1-2.3-1.2C20,0.1,19.3,0,18.4,0c-0.4,0-0.9,0-1.3,0.1s-0.7,0.1-1,0.1c-0.4,0.1-0.8,0.2-1.1,0.3
		c-0.2,0.1-0.6,0.2-1,0.4c-0.2,0.1-0.4,0.1-0.6,0.4c-0.4,0.3-1.1,0.6-1.7,1.1c-1,0.7-2.1,1.7-2.9,3.2C8.3,6.2,7.9,7,7.7,7.9
		c-0.4,0.9-0.4,1.8-0.4,2.9c0,0.6,0.1,1.4,0.2,2.1c0,0.1,0,0.1,0,0.1s0,0.2,0,0.3c0,0.1,0.1,0.3,0.1,0.4c0,0.1,0,0.1,0,0.1v0.1l0,0
		l0,0V14l0.2,0.8c-0.3,0.3-0.4,0.6-0.6,0.9c-0.3,0.4-0.4,1-0.4,1.6c0,0.3,0,0.5,0.1,0.8l0,0c0.1,0.6,0.4,1.2,0.5,1.7
		c0.3,0.6,0.6,1.2,1.1,1.5c-1.9,2.3-0.4,5.3-0.4,6.8c0.1,3-1.6,3.8-1.7,4.8c0,0-0.1,0-0.1,0.1c-0.7,0.4-1.4,0.6-2.2,1.1
		c-0.5,0.4-1.1,0.6-1.5,1.2c-0.7,0.6-1.4,1.4-1.7,2.5c-0.4,1-0.6,2.2-0.6,3.5c0,0.2,0.1,0.4,0.1,0.5c0.1,0.1,0.1,0.4,0.3,0.4
		c0.2,0.3,0.4,0.5,0.7,0.7c0.5,0.4,1.3,0.8,2.2,1.2c1.4,0.5,3.2,1,5.7,1.4s5.4,0.6,9,0.6c3.2,0,5.7-0.1,8-0.4
		c1.7-0.2,3.2-0.4,4.3-0.7c0.9-0.2,1.7-0.4,2.4-0.7c0.5-0.2,0.9-0.4,1.4-0.6c0.3-0.1,0.5-0.4,0.8-0.4c0.4-0.3,0.6-0.5,0.8-0.8
		c0.1-0.1,0.2-0.3,0.3-0.4c0.1-0.1,0.1-0.4,0.1-0.5C35.9,40.2,35.8,39.4,35.6,38.6z M12.3,10.5c4,0.9,11.1-3.4,11.1-3.4
		s0.1,1.9,1.4,3.7c0.5,0.7,1,1.8,1.3,2.9c-0.1-0.1-0.3-0.2-0.6-0.3c-0.6-0.1-1.7-0.1-2.9-0.1c-3.4,0.2-3.2,0.4-4.5,0.4
		c-1.4,0-1.1-0.4-4.5-0.4c-1.1-0.1-2.2,0-2.9,0.1c-0.1,0-0.2,0.1-0.4,0.1C10.8,13.1,11.4,12.2,12.3,10.5z M25.5,15.9
		c0,0,0,2-1.4,2.7c-0.4,0.2-1,0.4-1.6,0.4s-1.2-0.1-1.6-0.4c-0.4-0.3-0.8-0.7-1-1.3c-0.1-0.1-0.1-0.3-0.1-0.4
		c-0.1-0.4-0.4-1.4,0.2-1.9c0.4-0.4,1.6-0.4,2.8-0.4c1.1,0,2.2,0.1,2.4,0.4C25.4,15.1,25.5,15.6,25.5,15.9z M16.5,16.9
		c-0.1,0.1-0.1,0.3-0.1,0.4c-0.1,0.5-0.4,1-1,1.3c-0.4,0.3-1,0.4-1.6,0.4c-0.6,0-1.1-0.1-1.6-0.4c-1.4-0.7-1.4-2.7-1.4-2.7
		c0-0.4,0.1-0.8,0.3-1c0.4-0.4,1.4-0.4,2.4-0.4c1.1,0,2.4,0.2,2.8,0.4C16.8,15.4,16.5,16.6,16.5,16.9z M8.1,17.7L8.1,17.7
		C8,17.5,8,17.4,8,17.2c0-0.4,0.1-0.6,0.2-0.9c0.1-0.3,0.3-0.4,0.4-0.6c0.4,0.5,0.6,0.9,0.7,1.1c0.2,0.2,0.3,0,0.4-0.4
		c0.1,0.8,0.5,2.2,1.8,2.9c1.8,0.9,4.5,0.6,5.5-1.5c0.4-1,0.4-1.9,1.1-1.9c0.6,0,0.6,0.9,1.1,1.9c0.9,2.2,3.6,2.5,5.5,1.5
		c1.8-0.9,1.8-3.3,1.8-3.5c0-0.1,0.1-0.1,0.2-0.1c0.1,0.6,0.2,1.1,0.2,1.1s0.2-0.4,0.4-0.8c0.1,0.2,0.3,0.4,0.4,0.6
		c0.1,0.3,0.2,0.5,0.2,0.9c0,0.1,0,0.3-0.1,0.4c-0.1,0.5-0.3,1-0.4,1.4c-0.3,0.5-0.5,0.9-0.9,1.2c-0.4,0.3-0.6,0.4-1,0.6l-0.4,0.1
		L25,21.4c-0.4,1-0.7,1.8-1.1,2.5s-0.7,1.2-1.1,1.5l-0.1,0.1l-0.1,0.2c-0.1,0.7-0.4,1.6-0.4,2.5c0,0.4,0,0.6,0.1,0.9
		c0.1,0.4,0.1,0.7,0.3,1.1c0,0,0,0,0,0.1l-4.5,2.4l-5-2.3c0.1-0.4,0.3-0.7,0.4-1.2l0,0c0.1-0.4,0.1-0.6,0.1-0.9c0-1-0.1-1.8-0.4-2.5
		l-0.1-0.2L13,25.4c-0.4-0.4-0.7-0.9-1.1-1.5c-0.4-0.6-0.7-1.4-1.1-2.5l-0.1-0.4l-0.4-0.1c-0.2-0.1-0.4-0.2-0.6-0.4
		c-0.4-0.2-0.6-0.5-0.9-0.9C8.6,19.1,8.3,18.5,8.1,17.7z M19.8,33.1l3.4-1.8c0.1,0.1,0.2,0.3,0.4,0.4c0.2,0.3,0.4,0.4,0.7,0.6
		l-4.5,7l-0.5-3.5l1.3-1.4L19.8,33.1z M16.9,35.8L16.5,39l-5-6.8c0.1-0.1,0.3-0.2,0.4-0.3c0.3-0.2,0.5-0.4,0.7-0.7l3.9,1.8l-0.8,1.4
		L16.9,35.8z M34.4,41.3c-0.1,0.1-0.2,0.2-0.4,0.4c-0.2,0.1-0.4,0.3-0.6,0.4c-0.5,0.3-1.2,0.6-2.1,0.9c-1.4,0.4-3.1,0.8-5.2,1.1
		c-2.2,0.3-4.9,0.4-8,0.4s-5.7-0.1-7.8-0.4c-1.6-0.2-3-0.4-4.1-0.7C5.3,43.2,4.6,43,4,42.8c-0.4-0.2-0.9-0.4-1.2-0.5
		c-0.3-0.1-0.4-0.3-0.6-0.4c-0.3-0.2-0.4-0.4-0.4-0.4c-0.1-0.1-0.1-0.1-0.1-0.1l0,0c0-0.9,0.1-1.5,0.3-2.2c0.1-0.5,0.4-1,0.6-1.4
		c0.4-0.7,1-1.4,1.7-1.8c0.4-0.4,1.1-0.6,1.6-0.9c0.9-0.4,1.8-0.7,2.7-1.2c0.8-0.3,1.5-0.6,2.2-0.9l7.7,10.7l6.8-10.7
		c0.4,0.2,0.7,0.4,1.1,0.4c0.9,0.4,1.9,0.7,2.9,1.1c0.7,0.3,1.4,0.6,2,0.9c0.4,0.3,0.9,0.6,1.4,0.9c0.6,0.5,1.1,1.2,1.4,1.9
		c0.3,0.8,0.6,1.9,0.6,3.1C34.4,41.2,34.4,41.2,34.4,41.3z"/>
	<rect x="23.6" y="40.4" class="st0" width="6" height="1.1"/>
</g>
</svg>
