<?xml version="1.0" encoding="utf-8"?>
<!-- Generator: Adobe Illustrator 26.3.1, SVG Export Plug-In . SVG Version: 6.00 Build 0)  -->
<svg version="1.1" id="_x32_" xmlns="http://www.w3.org/2000/svg" xmlns:xlink="http://www.w3.org/1999/xlink" x="0px" y="0px"
	 viewBox="0 0 36 50" style="enable-background:new 0 0 36 50;" xml:space="preserve">
<style type="text/css">
	.st0{fill:#FFEE66;}
</style>
<g>
	<path class="st0" d="M34.7,40.2c-1.1-1.6-2.9-2.7-4.5-3.2c-0.8-0.4-1.6-0.5-2.3-0.7c-0.4-0.1-0.8-0.2-1.1-0.4
		c0.8-0.4,2.6-1.5,2.6-3c-2.9,0.6-4-1.7-4.2-4c0.4-0.8,0.8-1.6,1.1-2.8c0.2-0.1,0.4-0.2,0.5-0.4c0.4-0.4,0.8-0.7,1.1-1.4
		c0.4-0.6,0.6-1.4,0.9-2.4c0.1-0.5,0.2-1,0.2-1.4c0-0.4-0.1-0.9-0.3-1.3c-0.1-0.3-0.4-0.4-0.6-0.6c1.4-3.9,0.4-7.6-1.9-10.3
		C26.2,4.4,24,0.1,19.7,0c-4.6-0.1-6.4,3.3-6.8,5.4c-4.5,1.8-7,5.8-6.5,10.6c0.1,1.3,0.4,2.2,0.9,3.1c-0.1,0.1-0.1,0.1-0.1,0.2
		c-0.2,0.4-0.3,0.7-0.3,1.3c0,0.4,0.1,0.9,0.2,1.4c0.4,1.4,0.8,2.3,1.3,3c0.3,0.4,0.5,0.6,0.8,0.8c0.2,0.1,0.4,0.2,0.5,0.4
		c0.5,2.4,1.9,4,2.7,5c0,1.1,0,2,0,2.7c0,0.1-0.1,0.2-0.1,0.4c-0.2,0.3-0.6,0.6-1.1,0.9c-0.4,0.3-1,0.5-1.4,0.6
		c-0.5,0.2-1.4,0.4-2.4,0.6c-1.5,0.4-3.2,1.1-4.7,2.3C1.8,39.3,1.2,40,0.8,41C0.3,42,0,43.1,0,44.4c0,0.4,0,0.6,0.1,1
		c0,0.3,0.1,0.4,0.2,0.6c0.2,0.3,0.4,0.5,0.8,0.7c0.6,0.4,1.4,0.7,2.4,1.1C6.6,49,11.7,50,18,50c5.1,0,9.4-0.6,12.6-1.5
		c1.5-0.4,2.8-0.9,3.7-1.4c0.4-0.2,0.8-0.4,1.1-0.7c0.1-0.1,0.3-0.3,0.4-0.4c0.1-0.1,0.2-0.4,0.2-0.6c0-0.4,0.1-0.6,0.1-1
		C36,42.7,35.5,41.3,34.7,40.2z M11,25.5l-0.1-0.4l-0.4-0.1c-0.3-0.1-0.4-0.2-0.6-0.3c-0.3-0.2-0.4-0.4-0.7-0.9
		c-0.3-0.4-0.5-1.2-0.8-2.2c-0.1-0.4-0.2-0.8-0.2-1.1l0,0c1.1,1.2,2.2,1.4,2.2,1.4c9.6-3.2,12.4-8.9,12.4-8.9s0.4,8.2,3.4,9.7
		c0.6-0.8,1.2-1.6,1.6-2.4c0.1,0.1,0.1,0.3,0.1,0.4c0,0.3-0.1,0.6-0.2,1.1c-0.4,1.4-0.7,2.1-1.1,2.6c-0.1,0.2-0.4,0.4-0.4,0.4
		c-0.1,0.1-0.4,0.2-0.6,0.3L25,25.1L25,25.6c-0.4,2.5-1.7,3.9-2.7,4.9l-0.2,0.2V31c0,1.3,0,2.2,0,2.9c0,0.4,0.2,0.9,0.4,1.2
		c0.2,0.3,0.4,0.4,0.6,0.6l-4.8,7.4l-5-7.9c0.1-0.1,0.1-0.1,0.1-0.1c0.3-0.4,0.4-0.7,0.4-1.2c0-0.7,0-1.6,0-2.9v-0.3l-0.1-0.2
		C12.7,29.4,11.4,28,11,25.5z M12.5,35.9L12.5,35.9l5.9,9l5.6-8.6c0,0,0,0,0.1,0c0.5,0.4,1.2,0.6,1.7,0.8c0.1,0,0.1,0.1,0.1,0.1
		l1.6,4.9L24,41.3l-5.7,4.8l-5.7-4.8L9.1,42l1.7-5.3C11.4,36.5,12,36.2,12.5,35.9z M34.5,45.3L34.5,45.3c-0.2,0.2-0.4,0.4-0.6,0.4
		c-1,0.6-3.1,1.4-5.8,1.9c-2.7,0.5-6.2,0.9-10.1,0.9c-5,0-9.3-0.6-12.1-1.4c-1.4-0.4-2.7-0.9-3.4-1.2c-0.4-0.2-0.6-0.4-0.8-0.5
		c-0.1-0.1-0.1-0.1-0.1-0.1c0-0.3-0.1-0.5-0.1-0.8c0-1.6,0.4-2.7,1-3.6c0.9-1.4,2.3-2.1,3.8-2.7c0.7-0.3,1.4-0.4,2.2-0.6
		c0.5-0.1,1-0.3,1.4-0.4l-2,6.2l4.7-1.1l6,4.9l6-4.9l4.7,1.1l-1.9-5.9c0.4,0.1,0.8,0.2,1.3,0.4c1.4,0.4,3.1,1,4.2,2
		c0.6,0.5,1.1,1.1,1.4,1.9c0.4,0.8,0.6,1.7,0.6,2.9C34.6,44.8,34.6,45.1,34.5,45.3z"/>
</g>
</svg>
